#define dtk_speak.s.bm_width 24
#define dtk_speak.s.bm_height 24
static char dtk_speak.s.bm_bits[] = {
   0xfc, 0xbf, 0x9f, 0x05, 0xd0, 0x7f, 0xfc, 0xef, 0xff, 0xfd, 0x2f, 0xbd,
   0xb4, 0x2d, 0x91, 0xfd, 0xef, 0xff, 0xfc, 0xef, 0x7f, 0xdd, 0xd6, 0x07,
   0xfc, 0x6f, 0xf8, 0x07, 0xfe, 0x5f, 0xfb, 0xbd, 0x5b, 0xfb, 0xf1, 0x5f,
   0x7d, 0xfb, 0x5e, 0xed, 0xea, 0x5b, 0xf5, 0xfa, 0x5f, 0xfd, 0xfb, 0x7f,
   0xfd, 0x0b, 0x00, 0xfb, 0x4d, 0xd2, 0xef, 0xdb, 0x96, 0x97, 0x24, 0xa9,
   0x6d, 0xdb, 0x76, 0xfd, 0xff, 0x7f, 0x00, 0x00, 0x00, 0x57, 0x55, 0x55};
