#define dtk_speak.t.bm_width 16
#define dtk_speak.t.bm_height 16
static char dtk_speak.t.bm_bits[] = {
   0xfe, 0xbd, 0xff, 0xfe, 0xfe, 0xf0, 0xff, 0xfe, 0xfe, 0x7e, 0xff, 0xe2,
   0xc2, 0x3f, 0x3d, 0x3f, 0xff, 0x3f, 0xdb, 0x3f, 0xff, 0x7f, 0xbd, 0xaa,
   0xff, 0xbf, 0xff, 0x7f, 0xfe, 0x7f, 0xab, 0xaa};
