/* XPM */
static char *bet16b[] = {
/* width height num_colors chars_per_pixel */
"    64    64       15            1",
/* colors */
". c #b3353f",
"# c #1c2e23",
"a c #303733",
"b c #4f171c",
"c c #886653",
"d c #997a68",
"e c #494236",
"f c #c1a08e",
"g c #654b3b",
"h c #b68a73",
"i c #6c5e57",
"j c #978e87",
"k c #c3bdb6",
"l c #525454",
"m c #fffbf0",
/* pixels */
"bbbbbbbbbbbbbbbbbbbbbbbbbbbbbbbbbbbbbbbbbbbbbbbbbbbbbbbbbbbbbbbb",
"bbbbbbbbbbbbbbbbbbbbbbbbbbbbbbbbbbbbbbbbbbbbbbbbbbbbbbbbbbbbbbbb",
"bbbbbbbbbbbbbbbbbbbbbbbbbbbbbbbbbbbbbbbbbbbbbbbbbbbbbbbbbbbbbbbb",
"bbbbbbbbbbbbbbbbbbbbbbbbbbbbbbbbbbbbbbbbbbbbbbbbbbbbbbbbbbbbbbb.",
"bbbb............................................................",
"bbbb............................................................",
"bbbb..........................llaaal............................",
"bbbb.......................laaaaaa#aaal.........................",
"bbbb......................aaa#####a#a#al........................",
"bbbb....................aaaaa###########a.......................",
"bbbb....................aaaaa#############a.....................",
"bbbb....................aaaaa########aa####a....................",
"bbbb....................a##a#a##############a...................",
"bbbb...................#######################..................",
"bbbb..................########################a.................",
"bbbb.................##########################a................",
"bbbb................######aaa###############aa#a................",
"bbbb...............a#####lila#a##############aa#aa..............",
"bbbb..............a#####icciea####################a.............",
"bbbb.............a#####ljjdigeaa#################aa.............",
"bbbb.............a##a#ajjjjcgeaaa#################aa............",
"bbbb............a#####ijjjjdiga####################.............",
"bbbb...........aa#####jjjjddcgea###################a............",
"bbbb...........a######jjjfddcggga###################a...........",
"bbbb..........a######ajffddcccggge#a#################a..........",
"bbbb.........a#a#####ejcillaecccdgeaa#################a.........",
"bbbb........aa#a#####cjkjdgegidddigeaaaia##############.........",
"bbbb........aa#a#####dkjdgegccdddggeaeggge#############a........",
"bbbb.......l#a#######fjjl#eaadfddgeaaaaegee############a........",
"bbbb.......a##a######fjak#aaajkdceaaa#laaega############........",
"bbbb.......a##a######kkkiaaiecfdcgiil##iaegea###########a.......",
"bbbb.......a########cfdjieeggfhdccggeaaagigga###########a.......",
"bbbb.......aa#######fhddcccdffhhdccggcccccgge###########a.......",
"bbbb......aaa#######fhhhdhdfkfhhddcdccccdccgea#########a#a......",
"bbbb......aa#######gkfhhhhhffhhdccdddddhhhcgea############......",
"bbbb.......aa######ikkfhhhcffhhfcccdffffhdcgga############......",
"bbbb.......aa######ekkfhdcfjfhddddcddfffhdcge#############......",
"bbbb........a####cdekkfdcdfeadce##gddddhdccgaaj###########......",
"bbbb........aa###ajeffjjdfffcigdjdgddcccccgeaaa##########a......",
"bbbb.........a####agddjkfkffdiicccdddcigggeaaaa##########.......",
"bbbb..........a####eddfkdkfdciccdcdcccggeeaaaaa########a........",
"bbbb...........#####efkkckfcigicccicgeggeaaeaaa#######..........",
"bbbb............a####jkkiegccggggeggeeggeeeeaa######a...........",
"bbbb..............aa#jffiiidkkjjcieaeaegeeeaa#####..............",
"bbbb.................kffjff.ccccc..ggeggeeeaa#..................",
"bbbb..................jffkkj..dd.gggigeeeeeee#..................",
"bbbb...................jfkfjcggggeggggeeeaaaka#.................",
"bbbb...................jkkfjieeeeeggggeeeaejka#a................",
"bbbb....................jkkjcciiiiiggeealekmka##a...............",
"bbbb.....................jkjdcicccggeeallkmml####a..............",
"bbbb.....................kjjciiiiggeelllmmmk##a##aa.............",
"bbbb......................jdcggggeellaemmmmia######aa...........",
"bbbb......................jfdiillilaegmmmmma##########aa........",
"bbbb......................ekfdgaaaegimmmmmka##a#######a#aa......",
"bbbb......................lfffcgeegcmmmmmmaa############aaaaa...",
"bbbb.....................jdiffdcggcmmmmmmma######a####a###aaaaa.",
"bbbb....................likajffdccmmmmmmmka#a####aa#a#a###aa#aaa",
"bbbb...................alimlajfddmmmmmmmmaa####aaaa#aa#aa###aa#a",
"bbbb.................aallimmaecdmmmmmmmmma#aaa#aaaa#aaaa#aa#a#a#",
"bbbb...............aaallllmmjaemmmmmmmmmkaa#aaaaaa##aa#aa#a##a##",
"bbbb.............laaalallammmammmmkmmmmmlaa##a#aaa##aa#aaa###aaa",
"bbbb...........laaaaaalllammmkmmmkammmmmaa##a##aaa##a#aaaaaaaa#a",
"bbbb.........llaaaaaallliajjmmkmmaakmmmkaa#aaa#aaa##a#aaaa#a#aaa",
"bbb........lllaaaalllllllakdejaklfffjfmlaaaaaaaaaa#aaaaa###aaa#a"
};
