/* XPM */
static char *bet16a[] = {
/* width height num_colors chars_per_pixel */
"    64    64       16            1",
/* colors */
". c #b3353f",
"# c #1c2e23",
"a c #303733",
"b c #eecbcd",
"c c #4f171c",
"d c #886653",
"e c #997a68",
"f c #494236",
"g c #c1a08e",
"h c #654b3b",
"i c #b68a73",
"j c #6c5e57",
"k c #978e87",
"l c #c3bdb6",
"m c #525454",
"n c #fffbf0",
/* pixels */
"bbbbbbbbbbbbbbbbbbbbbbbbbbbbbbbbbbbbbbbbbbbbbbbbbbbbbbbbbbbbbbb.",
"bbbbbbbbbbbbbbbbbbbbbbbbbbbbbbbbbbbbbbbbbbbbbbbbbbbbbbbbbbbbbb.c",
"bb............................................................cc",
"bb............................................................cc",
"bb..........................mmaaam............................cc",
"bb.......................maaaaaa#aaam.........................cc",
"bb......................aaa#####a#a#am........................cc",
"bb....................aaaaa###########a.......................cc",
"bb....................aaaaa#############a.....................cc",
"bb....................aaaaa########aa####a....................cc",
"bb....................a##a#a##############a...................cc",
"bb...................#######################..................cc",
"bb..................########################a.................cc",
"bb.................##########################a................cc",
"bb................######aaa###############aa#a................cc",
"bb...............a#####mjma#a##############aa#aa..............cc",
"bb..............a#####jddjfa####################a.............cc",
"bb.............a#####mkkejhfaa#################aa.............cc",
"bb.............a##a#akkkkdhfaaa#################aa............cc",
"bb............a#####jkkkkejha####################.............cc",
"bb...........aa#####kkkkeedhfa###################a............cc",
"bb...........a######kkkgeedhhha###################a...........cc",
"bb..........a######akggeedddhhhf#a#################a..........cc",
"bb.........a#a#####fkdjmmafdddehfaa#################a.........cc",
"bb........aa#a#####dklkehfhjeeejhfaaaja##############.........cc",
"bb........aa#a#####elkehfhddeeehhfafhhhf#############a........cc",
"bb.......m#a#######gkkm#faaegeehfaaaafhff############a........cc",
"bb.......a##a######gkal#aaakledfaaa#maafha############........cc",
"bb.......a##a######llljaajfdgedhjjm##jafhfa###########a.......cc",
"bb.......a########dgekjffhhgieddhhfaaahjhha###########a.......cc",
"bb.......aa#######gieedddeggiieddhhdddddhhf###########a.......cc",
"bb......aaa#######giiieieglgiieededdddeddhfa#########a#a......cc",
"bb......aa#######hlgiiiiiggiieddeeeeeiiidhfa############......cc",
"bb.......aa######jllgiiidggiigdddeggggiedhha############......cc",
"bb.......aa######fllgiedgkgieeeedeegggiedhf#############......cc",
"bb........a####defllgedegfaedf##heeeeieddhaak###########......cc",
"bb........aa###akfggkkegggdjhekeheedddddhfaaa##########a......cc",
"bb.........a####aheeklglggejjdddeeedjhhhfaaaa##########.......cc",
"bb..........a####feeglelgedjddededddhhffaaaaa########a........cc",
"bb...........#####fglldlgdjhjdddjdhfhhfaafaaa#######..........cc",
"bb............a####klljfhddhhhhfhhffhhffffaa######a...........cc",
"bb..............aa#kggjjjellkkdjfafafhfffaa#####..............cc",
"bb.................lggkgg.ddddd..hhfhhfffaa#..................cc",
"bb..................kggllk..ee.hhhjhfffffff#..................cc",
"bb...................kglgkdhhhhfhhhhfffaaala#.................cc",
"bb...................kllgkjfffffhhhhfffafkla#a................cc",
"bb....................kllkddjjjjjhhffamflnla##a...............cc",
"bb.....................klkedjdddhhffammlnnm####a..............cc",
"bb.....................lkkdjjjjhhffmmmnnnl##a##aa.............cc",
"bb......................kedhhhhffmmafnnnnja######aa...........cc",
"bb......................kgejjmmjmafhnnnnna##########aa........cc",
"bb......................flgehaaafhjnnnnnla##a#######a#aa......cc",
"bb......................mgggdhffhdnnnnnnaa############aaaaa...cc",
"bb.....................kejggedhhdnnnnnnna######a####a###aaaaa.cc",
"bb....................mjlakggeddnnnnnnnla#a####aa#a#a###aa#aaacc",
"bb...................amjnmakgeennnnnnnnaa####aaaa#aa#aa###aa#acc",
"bb.................aammjnnafdennnnnnnnna#aaa#aaaa#aaaa#aa#a#a#cc",
"bb...............aaammmmnnkafnnnnnnnnnlaa#aaaaaa##aa#aa#a##a##cc",
"bb.............maaamammannnannnnlnnnnnmaa##a#aaa##aa#aaa###aaacc",
"bb...........maaaaaammmannnlnnnlannnnnaa##a##aaa##a#aaaaaaaa#acc",
"bb.........mmaaaaaammmjakknnlnnaalnnnlaa#aaa#aaa##a#aaaa#a#aaacc",
"bb.......mmmaaaammmmmmmalefkalmgggkgnmaaaaaaaaaa#aaaaa###aaa#acc",
"b.cccccccccccccccccccccccccccccccccccccccccccccccccccccccccccccc",
".ccccccccccccccccccccccccccccccccccccccccccccccccccccccccccccccc"
};
