/* XPM */
static char *den16a[] = {
/* width height num_colors chars_per_pixel */
"    64    64       15            1",
/* colors */
". c #b3353f",
"# c #1c2e23",
"a c #303733",
"b c #eecbcd",
"c c #4f171c",
"d c #886653",
"e c #997a68",
"f c #494236",
"g c #c1a08e",
"h c #654b3b",
"i c #b68a73",
"j c #6c5e57",
"k c #978e87",
"l c #c3bdb6",
"m c #525454",
/* pixels */
"bbbbbbbbbbbbbbbbbbbbbbbbbbbbbbbbbbbbbbbbbbbbbbbbbbbbbbbbbbbbbbb.",
"bbbbbbbbbbbbbbbbbbbbbbbbbbbbbbbbbbbbbbbbbbbbbbbbbbbbbbbbbbbbbb.c",
"bb............................................................cc",
"bb............................................................cc",
"bb........................##########..........................cc",
"bb.....................###############a.......................cc",
"bb....................##################a.....................cc",
"bb..................######################....................cc",
"bb..................#a####################....................cc",
"bb.................#aa######################..................cc",
"bb................##aa################aaa####.................cc",
"bb................a#aaa###############aaaa####................cc",
"bb...............a###a###############afamm####a...............cc",
"bb...............###a#a############affjddea###a...............cc",
"bb..............a#####aaa#aa#####ahhjdekggj###aa..............cc",
"bb..............#######aaaaa##afjdddeeegggka##aa..............cc",
"bb.............########aaaaafhdeeeeeeeekgggf##aaa.............cc",
"bb.............########fhjjdeegggggggiiigggfaaaaa.............cc",
"bb.............####f##ahjdeigglggggggggggggj#aaa#.............cc",
"bb.............###affafiggbglllgggggggggigkj#a#aa.............cc",
"bb.............###fdfhegglllglglglgggiggiikha#a#a.............cc",
"bb............a###meiggllllglllglgggggggggija#a#a.............cc",
"bb............#aa#feglbglggglglgggeddjdekggda#a##.............cc",
"bb............#a##aegggkkedjekgieehaffffameea####a............cc",
"bb............#a###ggkmfjmmafjeedjaa####amefh#####............cc",
"bb............#####dgdmaaa#afmdehama#affjfk#mm####............cc",
"bb............#####agjkda##aadkjmha#a###ajfafa####............cc",
"bb............####a#eedajaaffkeggmaahhffffdfa#####............cc",
"bb............####maeedeedjhhkglgfffhhhhhdedjf##aa............cc",
"bb............#aa#adgieiedddijlggdehdeeeeiiekeaah.............cc",
"bb............aeghjgggggigggiegggejddieiiiikkeehhk............cc",
"bb.............bgggkggggggggdggggeeheiiiiggkeeedhe............cc",
"bb.............libgdggbggggkgggbgeehfkkkkjeeeeehhe............cc",
"bb.............gilggiekkkkdggggbgieefhddeeeeeeddee............cc",
"bb.............gbggggggggeiggggbgieehfhdddeeeeeeik............cc",
"bb.............ggbggggggieggiiggedhaaafhdhddeedei.............cc",
"bb.............glggggggejdhhhdedhf#####ahjhheehee.............cc",
"bb..............glggggghffafaafha#######ahhhde................cc",
"bb.................ggieaaaa#aaafa########fahde................cc",
"bb.................egeeaaaaaaaaa#a##a####hfhde................cc",
"bb.................kgiihaaaahffffaaa##aafjfjdd................cc",
"bb..................ggggeeiffhjffffafhhhjjfjdd................cc",
"bb..................egiggggiiiggieeddddjjjfjj.................cc",
"bb..................eggkggggglgiiieedjdjjfhjj.................cc",
"bb..................keiigggiggeddedjjjdjjfjjj.................cc",
"bb..................keegggggggkeeedjdddjjhjdd.................cc",
"bb..................gkeiigggggkekeedeeddjhdde.................cc",
"bb..................ggkeikgggggggieeedjjjjdde.................cc",
"bb..................kggeekgggggigeeedjjjjjjde.................cc",
"bb..................jggkkkkkggggkejjmmjjmjjde.................cc",
"bb.................algggkkkkkkkeejjfffhjhjjdka................cc",
"bb................##llgggeeedjjmfaaaafffjjjela................cc",
"bb...............###lllgggkdjjfaa#aafffhjjdllaaa..............cc",
"bb..............###alllggggiedhaaaafffhjjjklla#aa.............cc",
"bb............#####allllggggggedhhhffjjjjkllla####............cc",
"bb.........########allllllgggggiedmmjjjjklllla######a.........cc",
"bb.......##########alllllllggggiejdddddllllll########a#.......cc",
"bb.....#############llllllllgggeddeedlllllllka###########a....cc",
"bb..################lllllllllggddeekllllllllm#a############a..cc",
"bb##################llllllllllkdeillllllllllaa################cc",
"bb##################llllllllllkhjglllllllllka#################cc",
"bb################a#lllllllll.hhh.hdlllllllj##################cc",
"b.cccccccccccccccccccccccccccccccccccccccccccccccccccccccccccccc",
".ccccccccccccccccccccccccccccccccccccccccccccccccccccccccccccccc"
};
