/* XPM */
static char *dtk[] = {
/* width height num_colors chars_per_pixel */
"    48    48        6            1",
/* colors */
". c #000000",
"# c #000080",
"a c #808080",
"b c #ffff00",
"c c #00ffff",
"d c #ffffff",
/* pixels */
"dd......................ddddd.............dddddd",
"aa.ddbddbddbddbddbddbddbddd..ddddddddddddd...ddd",
"aa.ddbddbddbddbddbddbddbddd..ddddddddddddd...ddd",
"aa.bb..................ddd.dddddddddddddddddd..d",
"aa.dd.ddcddcddcddcddcddc..ddddddddddddddddddddd.",
"aa.dd.ddcddcddcddcddcddc..ddddddddddddddddddddd.",
"aa.bb.ccdccdccdccdccdccd..d##ddd#ddd##ddd#ddddd.",
"aa.dd.ddcddcddcddcddcddc..d##d##d##dddddd#dd#dd.",
"aa.dd.ddcddcddcddcddcddc..d##d##d##dddddd#dd#dd.",
"aa.bb.ccdccdccdccdccdccd..d##d##d##d###ddd###dd.",
"aa.dd.ddcddcddcddcddcddc..ddddddddddddddddddddd.",
"aa.dd.ddcddcddcddcddcddc..ddddddddddddddddddddd.",
"aa.bb.ccdccdccdccdccdccd..ddddddddddddddddddddd.",
"aa.dd.ddcddcddcddcddcddc..ddddddddddddddddddd..d",
"aa.dd.ddcddcddcddcddcddc..ddddddddddddddddddd..d",
"aa.bb.ccdccdccdccdccdccdcc.ddddddddddd.........d",
"aa.dd.ddcddcddcddcddcddc..ddd.........cddcdddddd",
"aa.dd.ddcddcddcddcddcddc..ddd.........cddcdddddd",
"aa.dddccdccdccdccdccdccd.....dccdccdccdccd..d..d",
"aaddd............cddcddcddcddcddcddcddcddc..b..d",
"aaddd............cddcddcddcddcddcddcddcddc..b..d",
"ddd..dddddddddddd.ccdccdccdccdccdccdccdccd..d..d",
"ddd..ddddddddddddd.....cddcddcddcddcddcddc..b..d",
"ddd..ddddddddddddd.....cddcddcddcddcddcddc..b..d",
"dd.dddddddddddddddddd..dccdccdccdccdccdccd..d..d",
"dd.dd#ddddd#dd#ddddd.ddcddcddcddcddcddcddc..b..d",
"dd.dd#ddddd#dd#ddddd.ddcddcddcddcddcddcddc..b..d",
"dd.dd#dd#dddddd##ddd.dddccdccdccdccdccdccd..d..d",
"dd.dd###ddd#ddd##ddd.ddcddcddcddcddcddcddc..b..a",
"dd.dd###ddd#ddd##ddd.ddcddcddcddcddcddcddc..b..a",
"dd.ddddddddddddddddd.dd.....................d..a",
"dd.ddddddddddddddddd.ddbddbddbddbddbddbddbddb..a",
"dd.ddddddddddddddddd.ddbddbddbddbddbddbddbddb..a",
"dd.ddddddddddddddddd.dd........................d",
"ddd..ddddddddddddd..daaaaaaaaaaaaaaaaaaaaaaadddd",
"ddd..ddddddddddddd..daaaaaaaaaaaaaaaaaaaaaaadddd",
"ddd.................d.......................dddd",
"ddddddddaddaddaddaddadd.dd.dd.dd.dd.dd.ddd...ddd",
"ddddddddaddaddaddaddadd.dd.dd.dd.dd.dd.ddd...ddd",
"dddddd..d..d..d..d..d..d..d..d..d..d..d..ddd.ddd",
"dd.dd.dd.dd.dd.dd.dd.dd.dd.dd.dd.dd.dd.dd.ddd..d",
"dd.dd.dd.dd.dd.dd.dd.dd.dd.dd.dd.dd.dd.dd.ddd..d",
"aa.............................................a",
"aa.ddbddbddbddbddbddbddbddbddbddbddbddbddbddb..a",
"aa.ddbddbddbddbddbddbddbddbddbddbddbddbddbddb..a",
"aa.............................................a",
"dddaaaaaaaaaaaaaaaaaaaaaaaaaaaaaaaaaaaaaaaaaaaad",
"dddaaaaaaaaaaaaaaaaaaaaaaaaaaaaaaaaaaaaaaaaaaaad"
};
