/* XPM */
static char *fra16a[] = {
/* width height num_colors chars_per_pixel */
"    64    64       15            1",
/* colors */
". c #b3353f",
"# c #1c2e23",
"a c #303733",
"b c #eecbcd",
"c c #4f171c",
"d c #886653",
"e c #997a68",
"f c #494236",
"g c #c1a08e",
"h c #654b3b",
"i c #b68a73",
"j c #6c5e57",
"k c #978e87",
"l c #c3bdb6",
"m c #525454",
/* pixels */
"bbbbbbbbbbbbbbbbbbbbbbbbbbbbbbbbbbbbbbbbbbbbbbbbbbbbbbbbbbbbbbb.",
"bbbbbbbbbbbbbbbbbbbbbbbbbbbbbbbbbbbbbbbbbbbbbbbbbbbbbbbbbbbbbb.c",
"bb............................................................cc",
"bb............................................................cc",
"bb..........................mmfaaaaaaaa.......................cc",
"bb.......................aajjmfaaffaaa#aaa....................cc",
"bb......................afffamfaaaaaa##a#amm..................cc",
"bb...................mmffaf###aaaaa####aaa#m..................cc",
"bb..................faaaaa##faa########aa#a#a.................cc",
"bb.................ffaa##a#fa##a#####a###a##am................cc",
"bb...............jfam###faaaa#aaa######a##a##f.f..............cc",
"bb..............maaaaffmjaafaa##a###a########faaa.............cc",
"bb..............jfafjfaaaajafaa#aaaaa#########mmmf............cc",
"bb.............efffjmfaaafffffaa#aaa########a##jfam...........cc",
"bb.............mmmmmjmfaffffahhffa##aaaffaafa##mjaa...........cc",
"bb............mjejamkfjhjhjhhddeedfaafhjhhhdda#mjmma..........cc",
"bb............jjejffjejhhddddeiiiiieddddeeedhaa#famf..........cc",
"bb............jkjfejejjjdhddiiiiiiiiiiiiiiiiddha#afm..........cc",
"bb............jkkfkjfejdediiiiiiigggggggiiiiiedfafam..........cc",
"bb............jkeekkjkdddiiiiiiiigggggggggiiieddaafmm.........cc",
"bb............eeeklkjjdddgiiiiiiiiggggggggiiieeda#amm.........cc",
"bb...........gkjekkkkddeigiiiiiiiiigggggiiiieeedhaamm.........cc",
"bb..........kkkjjkkkkgeeigiiiiiiiiiggggggiiiieiedfmm..........cc",
"bb..........kkkkkkkkkgediggiiiiiiiiiggggggiiiiiedfmm..........cc",
"bb..........kkllllkgkgeegggiiiiiiiiggggggggieeeddafm..........cc",
"bb...........kglllllkgeilggiidddhddiiigiiieddhdddfmm..........cc",
"bb...........kgklgllgeiggggedhhhffhdeiiiiedhfhhhhajm..........cc",
"bb............iekllgleggggieddhhffhhddeeddhhhhjdhaj...........cc",
"bb...........idiiglkdillgiedhh#fjhhhhddehhfhjhdhjaj...........cc",
"bb...........iiedggkeggggiidhhaakeddhdeidha#ajhddf............cc",
"bb...........iidhiiggggggiiieieeiiegddiiiedeeedde.............cc",
"bb............edhhillggggieiiedddeeiedieeiddeeeek.............cc",
"bb............idhhiggggggiiiiiiiiiiieiiiiiiieeiie.............cc",
"bb.............ddhgggggliiiiiiiiigieeiiiieiiiiiie.............cc",
"bb.............idhiglggggiiiiiiiiiiieeiiiiiiiiiie.............cc",
"bb.............ggdhglgggggiiiiiiiiiddeiiiieiiiiee.............cc",
"bb..............lieglgggggiieeiiededeiieeiddiiied.............cc",
"bb..............ggigglggggiiededdedhfafeeedeedeed.............cc",
"bb...............ggdggggggiiddededdehhffhhdddhddh.............cc",
"bb...............kiegggggieiedddedddddhhdddddhddh.............cc",
"bb................jggggggidgeddhhhddddeedddhdhdd..............cc",
"bb................eggggggidgeed#afhhhddddh#hhddj..............cc",
"bb................jggggggidididdffdegggggjhddedh..............cc",
"bb.................gggggiidedideddhhhhhhdddddeh...............cc",
"bb.................giggiiiddddidddeeiiiieddeedh...............cc",
"bb.................fgggiiiddddideeededddddeeeh................cc",
"bb................##gdiiiiddddiidiiddeeiedeijh................cc",
"bb...............###gieiiieddeiieiiiieiedddeh.................cc",
"bb..............####lidideeeeeiiiiiieiiiiddeh.................cc",
"bb.............#####liidddeeeiiiiiieeieeeddd..................cc",
"bb............##a###llidhddedeiiiieddddddddj..................cc",
"bb..........########jllehaddddeeedddhhhhhhh...................cc",
"bb........###########llldhahdddddhfffffff.....................cc",
"bb.......########a###llllhfaahddhhffffahk.....................cc",
"bb.....##############mllllha#ahhaaaafafhl#....................cc",
"bb...#################lllllhf#ahaaffffhhl##a..................cc",
"bb.###################kllllljffhhffhhhhgl#####................cc",
"bb#####################llllllkhfhhhhhhell########.............cc",
"bb#####################lllllllkhhhhhhdllk##########...........cc",
"bb#################a###albllllllhhhddllla############.........cc",
"bb####################a#lbbbllllljhkllll##############a.......cc",
"bb######################fllbllbbbka#akll#################a....cc",
"b.cccccccccccccccccccccccccccccccccccccccccccccccccccccccccccccc",
".ccccccccccccccccccccccccccccccccccccccccccccccccccccccccccccccc"
};
