/* XPM */
static char *fra16b[] = {
/* width height num_colors chars_per_pixel */
"    64    64       15            1",
/* colors */
". c #b3353f",
"# c #1c2e23",
"a c #303733",
"b c #eecbcd",
"c c #4f171c",
"d c #886653",
"e c #997a68",
"f c #494236",
"g c #c1a08e",
"h c #654b3b",
"i c #b68a73",
"j c #6c5e57",
"k c #978e87",
"l c #c3bdb6",
"m c #525454",
/* pixels */
"cccccccccccccccccccccccccccccccccccccccccccccccccccccccccccccccc",
"cccccccccccccccccccccccccccccccccccccccccccccccccccccccccccccccc",
"cccccccccccccccccccccccccccccccccccccccccccccccccccccccccccccccc",
"ccccccccccccccccccccccccccccccccccccccccccccccccccccccccccccccc.",
"cccc............................................................",
"cccc............................................................",
"cccc..........................mmfaaaaaaaa.......................",
"cccc.......................aajjmfaaffaaa#aaa....................",
"cccc......................afffamfaaaaaa##a#amm..................",
"cccc...................mmffaf###aaaaa####aaa#m..................",
"cccc..................faaaaa##faa########aa#a#a.................",
"cccc.................ffaa##a#fa##a#####a###a##am................",
"cccc...............jfam###faaaa#aaa######a##a##f.f..............",
"cccc..............maaaaffmjaafaa##a###a########faaa.............",
"cccc..............jfafjfaaaajafaa#aaaaa#########mmmf............",
"cccc.............efffjmfaaafffffaa#aaa########a##jfam...........",
"cccc.............mmmmmjmfaffffahhffa##aaaffaafa##mjaa...........",
"cccc............mjejamkfjhjhjhhddeedfaafhjhhhdda#mjmma..........",
"cccc............jjejffjejhhddddeiiiiieddddeeedhaa#famf..........",
"cccc............jkjfejejjjdhddiiiiiiiiiiiiiiiiddha#afm..........",
"cccc............jkkfkjfejdediiiiiiigggggggiiiiiedfafam..........",
"cccc............jkeekkjkdddiiiiiiiigggggggggiiieddaafmm.........",
"cccc............eeeklkjjdddgiiiiiiiiggggggggiiieeda#amm.........",
"cccc...........gkjekkkkddeigiiiiiiiiigggggiiiieeedhaamm.........",
"cccc..........kkkjjkkkkgeeigiiiiiiiiiggggggiiiieiedfmm..........",
"cccc..........kkkkkkkkkgediggiiiiiiiiiggggggiiiiiedfmm..........",
"cccc..........kkllllkgkgeegggiiiiiiiiggggggggieeeddafm..........",
"cccc...........kglllllkgeilggiidddhddiiigiiieddhdddfmm..........",
"cccc...........kgklgllgeiggggedhhhffhdeiiiiedhfhhhhajm..........",
"cccc............iekllgleggggieddhhffhhddeeddhhhhjdhaj...........",
"cccc...........idiiglkdillgiedhh#fjhhhhddehhfhjhdhjaj...........",
"cccc...........iiedggkeggggiidhhaakeddhdeidha#ajhddf............",
"cccc...........iidhiiggggggiiieieeiiegddiiiedeeedde.............",
"cccc............edhhillggggieiiedddeeiedieeiddeeeek.............",
"cccc............idhhiggggggiiiiiiiiiiieiiiiiiieeiie.............",
"cccc.............ddhgggggliiiiiiiiigieeiiiieiiiiiie.............",
"cccc.............idhiglggggiiiiiiiiiiieeiiiiiiiiiie.............",
"cccc.............ggdhglgggggiiiiiiiiiddeiiiieiiiiee.............",
"cccc..............lieglgggggiieeiiededeiieeiddiiied.............",
"cccc..............ggigglggggiiededdedhfafeeedeedeed.............",
"cccc...............ggdggggggiiddededdehhffhhdddhddh.............",
"cccc...............kiegggggieiedddedddddhhdddddhddh.............",
"cccc................jggggggidgeddhhhddddeedddhdhdd..............",
"cccc................eggggggidgeed#afhhhddddh#hhddj..............",
"cccc................jggggggidididdffdegggggjhddedh..............",
"cccc.................gggggiidedideddhhhhhhdddddeh...............",
"cccc.................giggiiiddddidddeeiiiieddeedh...............",
"cccc.................fgggiiiddddideeededddddeeeh................",
"cccc................##gdiiiiddddiidiiddeeiedeijh................",
"cccc...............###gieiiieddeiieiiiieiedddeh.................",
"cccc..............####lidideeeeeiiiiiieiiiiddeh.................",
"cccc.............#####liidddeeeiiiiiieeieeeddd..................",
"cccc............##a###llidhddedeiiiieddddddddj..................",
"cccc..........########jllehaddddeeedddhhhhhhh...................",
"cccc........###########llldhahdddddhfffffff.....................",
"cccc.......########a###llllhfaahddhhffffahk.....................",
"cccc.....##############mllllha#ahhaaaafafhl#....................",
"cccc...#################lllllhf#ahaaffffhhl##a..................",
"cccc.###################kllllljffhhffhhhhgl#####................",
"cccc#####################llllllkhfhhhhhhell########.............",
"cccc#####################lllllllkhhhhhhdllk##########...........",
"cccc#################a###albllllllhhhddllla############.........",
"cccc####################a#lbbbllllljhkllll##############a.......",
"ccc.######################fllbllbbbka#akll#################a...."
};
