/* XPM */
static char *har16b[] = {
/* width height num_colors chars_per_pixel */
"    64    64       15            1",
/* colors */
". c #b3353f",
"# c #1c2e23",
"a c #303733",
"b c #4f171c",
"c c #886653",
"d c #997a68",
"e c #494236",
"f c #c1a08e",
"g c #654b3b",
"h c #b68a73",
"i c #6c5e57",
"j c #978e87",
"k c #c3bdb6",
"l c #525454",
"m c #fffbf0",
/* pixels */
"bbbbbbbbbbbbbbbbbbbbbbbbbbbbbbbbbbbbbbbbbbbbbbbbbbbbbbbbbbbbbbbb",
"bbbbbbbbbbbbbbbbbbbbbbbbbbbbbbbbbbbbbbbbbbbbbbbbbbbbbbbbbbbbbbbb",
"bbbbbbbbbbbbbbbbbbbbbbbbbbbbbbbbbbbbbbbbbbbbbbbbbbbbbbbbbbbbbbbb",
"bbbbbbbbbbbbbbbbbbbbbbbbbbbbbbbbbbbbbbbbbbbbbbbbbbbbbbbbbbbbbbb.",
"bbbb............................................................",
"bbbb..........................leaaaaaaa.........................",
"bbbb.....................lleeaaaaaaa#aaaaa......................",
"bbbb....................eaaaaaaaaa#aa#a#aaaa....................",
"bbbb..................leaaaaaaaaaaa##a#aaaaaaa..................",
"bbbb.................laaaaaaaaaaaa#a#####aa###ae................",
"bbbb................eeeaaaaaaaaa#a####aa##aaaaaae...............",
"bbbb...............laaaeaaaaaaaaa##########a###a#l..............",
"bbbb..............iaaaaaaaaeaaaaaa#aa#aa#a####a#aa..............",
"bbbb..............leaaaleiiieeaaaaaaaaa##a###aa##aa.............",
"bbbb.............leaaaiddddccciiggggieeeaeeeeaa##aa.............",
"bbbb.............eeaaldddddcccccccccdddccigggeeeaa#a............",
"bbbb.............eaaeijddddccccccccddjdccccggggge##a............",
"bbbb............laaaicjjjddcccccccddjdjdcdciggggga#a............",
"bbbb............laaaidjjjjccccccccddjjddccccgggggea#a...........",
"bbbb............aeeldjjjjjddcccdcddjjjjddddcgggggea#a...........",
"bbbb...........leaaicjjjdjddcccccdjjffjjjddigggeee#aa...........",
"bbbb...........ieaaljjjjjdccccccccdjffjjcccggggeeea#a...........",
"bbbb...........iaaalfffjjjdccccccdjjfffjcdciggeeeeaaa...........",
"bbbb...........iaaaifkffjdddcccddjjjjjjjjdccigeeeea##...........",
"bbbb............eaajfkffdddjccccdjjfdjjjjddcigeeeea#a...........",
"bbbb............eaajjffjdcdddcccdjddddjjffdcgggeeeaaa...........",
"bbbb............leajjfkddciccccccdddddddddciigeeeaaaa...........",
"bbbb.............eejjfdfdiileeeeggccccccggeeaeaaaaaal...........",
"bbbb............jjljfkjfdleeeaaeggggggggeea##aaaaeea............",
"bbbb............gkjjfjjddcigeaeeggeggeegea#aaaaaaea.............",
"bbbb............cfkjjjddjecaeeaaaeeeeeeaaaaaaaeeaae.............",
"bbbb............dkfjjjddieaa##aaaaggggeaaa###aaaaag.............",
"bbbb............kcgjjjddieegeggeaeiccgeeaaeeeeeaeel.............",
"bbbb............fgejjkjdddcgeeeggicdcgeeieaeeeeeeee.............",
"bbbb............fegjfjjdccciiiicccjcjieeiiiieeeegee.............",
"bbbb............kegffkdfdddcccddcjfdjdgeiddciiiigee.............",
"bbbb............iccjkkjjdddddddcijffdcgggcddddccgge.............",
"bbbb............fjjjkjdjhddhfdciidjhdcgggccdjjdigge.............",
"bbbb............kddjfkfjjddddcilccdcdcggeeicddcggge.............",
"bbbb.............cdjfffjdcccgeeccchdddcgggeegiiggee.............",
"bbbb..............djddjddiggeaafdhfhfkdccgeaaegeeae.............",
"bbbb...............jdddjdggeaeajkffdcccgggee#aeeaaa.............",
"bbbb...............jdjcdceeaeegeeiicggge#egea#aaaaa.............",
"bbbb...............jddicieaaeeilea#aea###eeaaa#aaaa.............",
"bbbb...............jjjiiiaeaaaeaaaaa#aa##aa##aaaaaa.............",
"bbbb...............jjdiiieeaaaileaeellaaaaa###aaaa..............",
"bbbb...............jciiiieeaaaiiigggccgeea#aaaaaaa..............",
"bbbb...............jiiiilleaaeadhffhgdgceegeaaaaaa..............",
"bbbb...............jiillileeeidccfkkdkjiiigeaaaaa...............",
"bbbb.............llkilellleeeijfjdddddjcigleaaaaa...............",
"bbbb..........lallamjiegelgeeidddcccccggggeaaaa#................",
"bbbb........aaaaalammigeeleeilccieeeeeeeeeaaaaaa................",
"bbbb......aaaaaaaaammkilllllliliigeeaeeeeelaaaaaaa..............",
"bbbb...laaaaaaaaalammmdileiliiieigeeeeeeeegaaaaaaaaaaa..........",
"bbbblaaaaaaaaaaaaeammmmdiegliciiiiliileeeeeaaleaaa#aaaaaaa......",
"bbbbaaaaaaaaaaaaaaammmmmiielliiiiiiiiiieeaaaakaaaaa#aaaaaaaaaa..",
"bbbbaaaaaa##a##aaaakmmmmmlieeliiilleeeeaaaaakklaaaaaaa#a#aaaaaaa",
"bbbbaaaaaaaaaaaaaaajmmmmmmlleeleeeeeaaaaaaadmmjaaa#a#a##aaaaaaaa",
"bbbbaaaaaaaa#aaaaaaammmmmmkiallleaaaaaaaaaakmmkaaa#aaaaaaaaaaaaa",
"bbbbaaaaaa#aaa#aaaa#mmmmmmkkkellllaaaaaaaakmmmmaaaaaaaa##aaaaaaa",
"bbbbaaaaaaaaa##aaaaakmmmmmmkkkjeleaaaaaaakmmmmmaaaaaaaaaaaaaaaaa",
"bbbbaaaaaaaaaaaaaaaaimmmmmmmkkjjjaaaa#aekmmmmmmlaaaaaaaa##aaaaaa",
"bbbbaaaaaaaaaaaaaaaaakmmmmmmmkkjjjdlelkjkmmmmmmjaaaaaaaaaaaaaaaa",
"bbb.aaaaaaaaaaaaaaaaakmmmmmmmmkkkkkg.g...jmmmmmkaaaaaaa#aaaa#aaa"
};
