/* XPM */
static char *har16a[] = {
/* width height num_colors chars_per_pixel */
"    64    64       16            1",
/* colors */
". c #b3353f",
"# c #1c2e23",
"a c #303733",
"b c #eecbcd",
"c c #4f171c",
"d c #886653",
"e c #997a68",
"f c #494236",
"g c #c1a08e",
"h c #654b3b",
"i c #b68a73",
"j c #6c5e57",
"k c #978e87",
"l c #c3bdb6",
"m c #525454",
"n c #fffbf0",
/* pixels */
"bbbbbbbbbbbbbbbbbbbbbbbbbbbbbbbbbbbbbbbbbbbbbbbbbbbbbbbbbbbbbbb.",
"bbbbbbbbbbbbbbbbbbbbbbbbbbbbbbbbbbbbbbbbbbbbbbbbbbbbbbbbbbbbbb.c",
"bb............................................................cc",
"bb..........................mfaaaaaaa.........................cc",
"bb.....................mmffaaaaaaa#aaaaa......................cc",
"bb....................faaaaaaaaa#aa#a#aaaa....................cc",
"bb..................mfaaaaaaaaaaa##a#aaaaaaa..................cc",
"bb.................maaaaaaaaaaaa#a#####aa###af................cc",
"bb................fffaaaaaaaaa#a####aa##aaaaaaf...............cc",
"bb...............maaafaaaaaaaaa##########a###a#m..............cc",
"bb..............jaaaaaaaafaaaaaa#aa#aa#a####a#aa..............cc",
"bb..............mfaaamfjjjffaaaaaaaaa##a###aa##aa.............cc",
"bb.............mfaaajeeeedddjjhhhhjfffaffffaa##aa.............cc",
"bb.............ffaameeeeedddddddddeeeddjhhhfffaa#a............cc",
"bb.............faafjkeeeeddddddddeekeddddhhhhhf##a............cc",
"bb............maaajdkkkeedddddddeekekededjhhhhha#a............cc",
"bb............maaajekkkkddddddddeekkeeddddhhhhhfa#a...........cc",
"bb............affmekkkkkeedddedeekkkkeeeedhhhhhfa#a...........cc",
"bb...........mfaajdkkkekeedddddekkggkkkeejhhhfff#aa...........cc",
"bb...........jfaamkkkkkeddddddddekggkkdddhhhhfffa#a...........cc",
"bb...........jaaamgggkkkeddddddekkgggkdedjhhffffaaa...........cc",
"bb...........jaaajglggkeeedddeekkkkkkkkeddjhffffa##...........cc",
"bb............faakglggeeekddddekkgekkkkeedjhffffa#a...........cc",
"bb............faakkggkedeeedddekeeeekkggedhhhfffaaa...........cc",
"bb............mfakkgleedjddddddeeeeeeeeedjjhfffaaaa...........cc",
"bb.............ffkkgegejjmffffhhddddddhhffafaaaaaam...........cc",
"bb............kkmkglkgemfffaafhhhhhhhhffa##aaaaffa............cc",
"bb............hlkkgkkeedjhfaffhhfhhffhfa#aaaaaafa.............cc",
"bb............dglkkkeekfdaffaaaffffffaaaaaaaffaaf.............cc",
"bb............elgkkkeejfaa##aaaahhhhfaaa###aaaaah.............cc",
"bb............ldhkkkeejffhfhhfafjddhffaafffffaffm.............cc",
"bb............ghfkklkeeedhfffhhjdedhffjfaffffffff.............cc",
"bb............gfhkgkkedddjjjjdddkdkjffjjjjffffhff.............cc",
"bb............lfhgglegeeedddeedkgekehfjeedjjjjhff.............cc",
"bb............jddkllkkeeeeeeedjkggedhhhdeeeeddhhf.............cc",
"bb............gkkklkekieeigedjjekiedhhhddekkejhhf.............cc",
"bb............leekglgkkeeeedjmddededhhffjdeedhhhf.............cc",
"bb.............dekgggkedddhffdddieeedhhhffhjjhhff.............cc",
"bb..............ekeekeejhhfaageigigleddhfaafhffaf.............cc",
"bb...............keeekehhfafaklggedddhhhff#affaaa.............cc",
"bb...............kekdedffaffhffjjdhhhf#fhfa#aaaaa.............cc",
"bb...............keejdjfaaffjmfa#afa###ffaaa#aaaa.............cc",
"bb...............kkkjjjafaaafaaaaa#aa##aa##aaaaaa.............cc",
"bb...............kkejjjffaaajmfaffmmaaaaa###aaaa..............cc",
"bb...............kdjjjjffaaajjjhhhddhffa#aaaaaaa..............cc",
"bb...............kjjjjmmfaafaeiggihehdffhfaaaaaa..............cc",
"bb...............kjjmmjmfffjeddgllelkjjjhfaaaaa...............cc",
"bb.............mmljmfmmmfffjkgkeeeeekdjhmfaaaaa...............cc",
"bb..........mammankjfhfmhffjeeedddddhhhhfaaaa#................cc",
"bb........aaaaamannjhffmffjmddjfffffffffaaaaaa................cc",
"bb......aaaaaaaaannljmmmmmmjmjjhffafffffmaaaaaaa..............cc",
"bb...maaaaaaaaamannnejmfjmjjjfjhffffffffhaaaaaaaaaaa..........cc",
"bbmaaaaaaaaaaaafannnnejfhmjdjjjjmjjmfffffaamfaaa#aaaaaaa......cc",
"bbaaaaaaaaaaaaaaannnnnjjfmmjjjjjjjjjjffaaaalaaaaa#aaaaaaaaaa..cc",
"bbaaaaaa##a##aaaalnnnnnmjffmjjjmmffffaaaaallmaaaaaaa#a#aaaaaaacc",
"bbaaaaaaaaaaaaaaaknnnnnnmmffmfffffaaaaaaaennkaaa#a#a##aaaaaaaacc",
"bbaaaaaaaa#aaaaaaannnnnnljammmfaaaaaaaaaalnnlaaa#aaaaaaaaaaaaacc",
"bbaaaaaa#aaa#aaaa#nnnnnnlllfmmmmaaaaaaaalnnnnaaaaaaaa##aaaaaaacc",
"bbaaaaaaaaa##aaaaalnnnnnnlllkfmfaaaaaaalnnnnnaaaaaaaaaaaaaaaaacc",
"bbaaaaaaaaaaaaaaaajnnnnnnnllkkkaaaa#aflnnnnnnmaaaaaaaa##aaaaaacc",
"bbaaaaaaaaaaaaaaaaalnnnnnnnllkkkemfmlklnnnnnnkaaaaaaaaaaaaaaaacc",
"bbaaaaaaaaaaaaaaaaalnnnnnnnnlllllh.h...knnnnnlaaaaaaa#aaaa#aaacc",
"b.cccccccccccccccccccccccccccccccccccccccccccccccccccccccccccccc",
".ccccccccccccccccccccccccccccccccccccccccccccccccccccccccccccccc"
};
