/* XPM */
static char *kid16a[] = {
/* width height num_colors chars_per_pixel */
"    64    64       14            1",
/* colors */
". c #b3353f",
"# c #1c2e23",
"a c #303733",
"b c #eecbcd",
"c c #4f171c",
"d c #886653",
"e c #997a68",
"f c #494236",
"g c #c1a08e",
"h c #654b3b",
"i c #b68a73",
"j c #6c5e57",
"k c #c3bdb6",
"l c #525454",
/* pixels */
"bbbbbbbbbbbbbbbbbbbbbbbbbbbbbbbbbbbbbbbbbbbbbbbbbbbbbbbbbbbbbbb.",
"bbbbbbbbbbbbbbbbbbbbbbbbbbbbbbbbbbbbbbbbbbbbbbbbbbbbbbbbbbbbbb.c",
"bb............................................................cc",
"bb............................................................cc",
"bb..........................########..........................cc",
"bb.......................##############.......................cc",
"bb.....................################a......................cc",
"bb...................####################.....................cc",
"bb..................######################....................cc",
"bb.................########################...................cc",
"bb...............###########################..................cc",
"bb...............###########################..................cc",
"bb..............#############################.................cc",
"bb.............##############################a................cc",
"bb............################################................cc",
"bb............############################aa##a...............cc",
"bb...........###########################a#aaf##...............cc",
"bb...........########################a##aaaaa#aa..............cc",
"bb..........a#################aaa####a#aaaaaaaaa..............cc",
"bb..........##############aaaffaafaaaaafafff##aa..............cc",
"bb..........############aaa#ahfaaaaaaaaa#a#f##aa..............cc",
"bb..........############a#a#fjhaaaaaa#aa#######aa.............cc",
"bb..........############a#aafdha######a########a#.............cc",
"bb..........##############aafdh##aa###aa#######a#.............cc",
"bb..........############aaaffedaaaaaffhdhh#######a............cc",
"bb..........a#########aaahhjdgieeeeegiggedfa#####a............cc",
"bb..........a#########ffffhhjjdeigggiedddeej#####a............cc",
"bb...........########affhjdedddeigggieeeiiieda###.............cc",
"bb...........#######affhjddjffjjegggehaaajdeeaa##.............cc",
"bb...........#######ffffhfaaaejhdigigejfjhheij##a.............cc",
"bb...........#######fhhhffjjeiehjigiigiigggiida#..............cc",
"bb............##a##afhjhjdeeeedddeiiiigiiggiida...............cc",
"bb............#ah##afhhddeiiieddddiiiigggggiidf...............cc",
"bb.............ahf#affhjdeiieiedideiiggggiiiijd...............cc",
"bb.............ahhhaffhhddiiiiehheigiigggggiiei...............cc",
"bb..............hfjffffhddeiiiihhdigiiigggggiie...............cc",
"bb...............ffjfffhddiiggdhdfddfiigggiiie................cc",
"bb...............ffhfffhhdeiigdhhjheiiggiiiie.................cc",
"bb................ffafffhjdeiiiiiiiiggggieiie.................cc",
"bb................a##fffhhdedeeiiggggggiiiiie.................cc",
"bb.................##afhjhdedjddiiigiieddgiid.................cc",
"bb..................#afhhhdidfffhhhhhdjeggii..................cc",
"bb..................##afhhjiiehhdhgggdigggie..................cc",
"bb....................afhhhdeeejdeiiiiiggii...................cc",
"bb....................aaffhjddddddddeigigie...................cc",
"bb....................afaffhjddeeeggggggie....................cc",
"bb....................ffaaffhhdeiigggggie.....................cc",
"bb....................afhffaffhdeiggggied.....................cc",
"bb...................lafhhhfaafhdeiiiieei.....................cc",
"bb..................##afhjjhfffafhjjhjeie.....................cc",
"bb..................##afhhhhhhhfffafeeiiea....................cc",
"bb................#####ffhhhhhhhfhdeieiief###.................cc",
"bb...............#######fhhhhhfhjeiiiigieea###a...............cc",
"bb..............a########fhhfhhdeeeieigieia######.............cc",
"bb.............###########ahjdeeeeeeiggiiiaa#######...........cc",
"bb...........##############aeiiiiieiiigiiia###a#####..........cc",
"bb..........#################aiiiiiiiigggeaa###########.......cc",
"bb........#####################adiiiigggia##############a.....cc",
"bb......##########################ajgggiaa################....cc",
"bb.....#############################aaef###################...cc",
"bb....###############################ad##a##################..cc",
"bb...#############################aekke######################.cc",
"b.cccccccccccccccccccccccccccccccccccccccccccccccccccccccccccccc",
".ccccccccccccccccccccccccccccccccccccccccccccccccccccccccccccccc"
};
