/* XPM */
static char *kid16b[] = {
/* width height num_colors chars_per_pixel */
"    64    64       13            1",
/* colors */
". c #b3353f",
"# c #1c2e23",
"a c #303733",
"b c #4f171c",
"c c #886653",
"d c #997a68",
"e c #494236",
"f c #c1a08e",
"g c #654b3b",
"h c #b68a73",
"i c #6c5e57",
"j c #c3bdb6",
"k c #525454",
/* pixels */
"bbbbbbbbbbbbbbbbbbbbbbbbbbbbbbbbbbbbbbbbbbbbbbbbbbbbbbbbbbbbbbbb",
"bbbbbbbbbbbbbbbbbbbbbbbbbbbbbbbbbbbbbbbbbbbbbbbbbbbbbbbbbbbbbbbb",
"bbbbbbbbbbbbbbbbbbbbbbbbbbbbbbbbbbbbbbbbbbbbbbbbbbbbbbbbbbbbbbbb",
"bbbbbbbbbbbbbbbbbbbbbbbbbbbbbbbbbbbbbbbbbbbbbbbbbbbbbbbbbbbbbbb.",
"bbbb............................................................",
"bbbb............................................................",
"bbbb..........................########..........................",
"bbbb.......................##############.......................",
"bbbb.....................################a......................",
"bbbb...................####################.....................",
"bbbb..................######################....................",
"bbbb.................########################...................",
"bbbb...............###########################..................",
"bbbb...............###########################..................",
"bbbb..............#############################.................",
"bbbb.............##############################a................",
"bbbb............################################................",
"bbbb............############################aa##a...............",
"bbbb...........###########################a#aae##...............",
"bbbb...........########################a##aaaaa#aa..............",
"bbbb..........a#################aaa####a#aaaaaaaaa..............",
"bbbb..........##############aaaeeaaeaaaaaeaeee##aa..............",
"bbbb..........############aaa#ageaaaaaaaaa#a#e##aa..............",
"bbbb..........############a#a#eigaaaaaa#aa#######aa.............",
"bbbb..........############a#aaecga######a########a#.............",
"bbbb..........##############aaecg##aa###aa#######a#.............",
"bbbb..........############aaaeedcaaaaaeegcgg#######a............",
"bbbb..........a#########aaaggicfhdddddfhffdcea#####a............",
"bbbb..........a#########eeeeggiicdhfffhdcccddi#####a............",
"bbbb...........########aeegicdcccdhfffhdddhhhdca###.............",
"bbbb...........#######aeegiccieeiidfffdgaaaicddaa##.............",
"bbbb...........#######eeeegeaaadigchfhfdieiggdhi##a.............",
"bbbb...........#######egggeeiidhdgihfhhfhhfffhhca#..............",
"bbbb............##a##aegigicddddcccdhhhhfhhffhhca...............",
"bbbb............#ag##aeggccdhhhdcccchhhhfffffhhce...............",
"bbbb.............age#aeegicdhhdhdchcdhhffffhhhhic...............",
"bbbb.............agggaeeggcchhhhdggdhfhhfffffhhdh...............",
"bbbb..............geieeeegccdhhhhggchfhhhfffffhhd...............",
"bbbb...............eeieeegcchhffcgceccehhfffhhhd................",
"bbbb...............eegeeeggcdhhfcggigdhhffhhhhd.................",
"bbbb................eeaeeegicdhhhhhhhhffffhdhhd.................",
"bbbb................a##eeeggcdcddhhffffffhhhhhd.................",
"bbbb.................##aegigcdcicchhhfhhdccfhhc.................",
"bbbb..................#aegggchceeegggggcidffhh..................",
"bbbb..................##aeggihhdggcgfffchfffhd..................",
"bbbb....................aegggcdddicdhhhhhffhh...................",
"bbbb....................aaeegiccccccccdhfhfhd...................",
"bbbb....................aeaeegiccdddffffffhd....................",
"bbbb....................eeaaeeggcdhhfffffhd.....................",
"bbbb....................aegeeaeegcdhffffhdc.....................",
"bbbb...................kaegggeaaegcdhhhhddh.....................",
"bbbb..................##aegiigeeeaegiigidhd.....................",
"bbbb..................##aegggggggeeeaeddhhda....................",
"bbbb................#####eegggggggegcdhdhhde###.................",
"bbbb...............#######egggggegidhhhhfhdda###a...............",
"bbbb..............a########eggeggcdddhdhfhdha######.............",
"bbbb.............###########agicddddddhffhhhaa#######...........",
"bbbb...........##############adhhhhhdhhhfhhha###a#####..........",
"bbbb..........#################ahhhhhhhhfffdaa###########.......",
"bbbb........#####################achhhhfffha##############a.....",
"bbbb......##########################aifffhaa################....",
"bbbb.....#############################aade###################...",
"bbbb....###############################ac##a##################..",
"bbb....#############################adjjd######################."
};
