/* XPM */
static char *pau16a[] = {
/* width height num_colors chars_per_pixel */
"    64    64       15            1",
/* colors */
". c #b3353f",
"# c #1c2e23",
"a c #303733",
"b c #eecbcd",
"c c #4f171c",
"d c #886653",
"e c #997a68",
"f c #494236",
"g c #c1a08e",
"h c #654b3b",
"i c #b68a73",
"j c #6c5e57",
"k c #978e87",
"l c #c3bdb6",
"m c #525454",
/* pixels */
"bbbbbbbbbbbbbbbbbbbbbbbbbbbbbbbbbbbbbbbbbbbbbbbbbbbbbbbbbbbbbbb.",
"bbbbbbbbbbbbbbbbbbbbbbbbbbbbbbbbbbbbbbbbbbbbbbbbbbbbbbbbbbbbbb.c",
"bb............................................................cc",
"bb........................k.jmjjjjkmkk........................cc",
"bb....................ejmafafamfmmmjmjjjj.....................cc",
"bb..................ejjjfaamafjfejjmmmmmmm....................cc",
"bb................kjjjmffamammfmjmjjejjmjmm...................cc",
"bb...............kjjjmmafajammmjmjmkejmmfjmmj.................cc",
"bb..............kjjjjjfafjmfffemjfjjkjjemffmaf................cc",
"bb..............jjmjkjmffjmjafjmffjmjmfffmfmmf................cc",
"bb.............jjjmmkjmfmfejjjmmajjmfaaaaaffmmf...............cc",
"bb.............jmmmfejfjammdmjmaajjaa###aaffmmjj..............cc",
"bb.............jffffejmmfjfkmjmaffmffa###afafmjm..............cc",
"bb............jafaaajejfffajjjaffhjhhfafaaaaafejj.............cc",
"bb............ffffaafjemfffjjjfffjjjhddddhffffmjm.............cc",
"bb............aaaaaafjejfffjjjjhhhjeeiiiiehfjmjkm.............cc",
"bb............faaaafhhjjhhfjjjjdeeiiigiiiiihhjekje............cc",
"bb............faaaafhhhhhhhjddddiiiggiiiiiiejjkkej............cc",
"bb.............aaaahhhhhhhdddddiiggiiiigiiiijjkkjjk...........cc",
"bb.............faffhhhhdddeieiiigggiggggiiiiekkkjek...........cc",
"bb.............aaafhhhhddeiiiiigggggggggggiiidkkjje...........cc",
"bb.............afafhhhhddeiiiigggggggglgggiiikekkek...........cc",
"bb.............mfffhhhhddiiiiigggggggglgggiieejjkk............cc",
"bb.............faafhhhdddiiiiiggggggggggggiieejjkk............cc",
"bb.............jfafhhhddeiiiigiggiigggggggiiedjek.............cc",
"bb..............aafhhhddeiiigggggiigggggggiiijjek.............cc",
"bb..............fahhhhdddeeiigggggggggggggiiidfj..............cc",
"bb..............fahhhhffffjdeiiggiiedjddeeiiiefj..............cc",
"bb.............faahhfa##aaaafdeiiejhhhheeejiiejee.............cc",
"bb............hfaahhfffffhffffhigedhhhdeeieeiefii.............cc",
"bb............hhffhhffafaafjf#higidhhaajediiiidgi.............cc",
"bb............hfffhhffaffheehahigiiddhhjhdigiieii.............cc",
"bb.............faahhhfhhjdddhfdigggdddeiiiggiieii.............cc",
"bb.............aafhhhhhhhdddhhdiggggieiiggggiiiig.............cc",
"bb.............fafhhhdeeeidddhdigggggiiggggggigii.............cc",
"bb.............ffahhhdeiiedhfhdggggigggglgggiiiii.............cc",
"bb.............hhfhhhddiidhffhdggggidiglllggiiggg.............cc",
"bb.............hffhhhhdddhaahhdgggigihdgggggiiggi.............cc",
"bb.............hffhffhdddfaafhdigiiggihdiggiiiggj.............cc",
"bb..............ffhfffhhfaaaaaddieiiggihdiiiiigem.............cc",
"bb..............dfhfffhhfaaaaafhjeggieeehiiiiejjj.............cc",
"bb...............fhfffdhfaaffhdeeiiedddediigimjje.............cc",
"bb................ffffddha#afhddiiigdfdeiiggifjj..............cc",
"bb.................hhfdedhfahegglglidiiiiggie.j...............cc",
"bb..................ffhddhfhhdeiiiieigiiiiiik.................cc",
"bb..................fffhddffhddeigiigiiiiiie..................cc",
"bb...................fffhdhffhhddeiggigiiie...................cc",
"bb...................faafhdhhjjdeiiiiggieie...................cc",
"bb....................faafdddeeeiigiggieieea..................cc",
"bb....................ffafhddeeiiiggggieeekfa.................cc",
"bb....................hfffhhddeiiggggieedelaaa................cc",
"bb....................hfffffhdeeiigiedddegmaaaf...............cc",
"bb....................hfffaafhhdddddjjdeglaaaaam..............cc",
"bb....................hhffaaaaaafffhhdeglkaaaaaam.............cc",
"bb....................hhfaaaaaaaffhdeegllaaaaaaaaf............cc",
"bb...................mfhhaaaaafffhdeilllfaaaaaaaaaaf..........cc",
"bb.................aaafhhffffffhddegllljaaaaaaaaa##aa.........cc",
"bb...............aaa##jfhfffhhddddgllllaaaaaaaaa###a#a........cc",
"bb...........faaaaa##aeffffhhdddelllllaaaaaaaaaa#####aaa......cc",
"bb........faaaa#######jefffhdddglllllmaaaaaaaaa#######aaaa....cc",
"bb......aaaaa#########mekfffdellllllkaaaaaaaaaa########aaaaa..cc",
"bb...aaaaaa########a##akkkffglllklllaaaaaaaaaaa########aaaaaaacc",
"b.cccccccccccccccccccccccccccccccccccccccccccccccccccccccccccccc",
".ccccccccccccccccccccccccccccccccccccccccccccccccccccccccccccccc"
};
