/* XPM */
static char *pau16b[] = {
/* width height num_colors chars_per_pixel */
"    64    64       14            1",
/* colors */
". c #b3353f",
"# c #1c2e23",
"a c #303733",
"b c #4f171c",
"c c #886653",
"d c #997a68",
"e c #494236",
"f c #c1a08e",
"g c #654b3b",
"h c #b68a73",
"i c #6c5e57",
"j c #978e87",
"k c #c3bdb6",
"l c #525454",
/* pixels */
"bbbbbbbbbbbbbbbbbbbbbbbbbbbbbbbbbbbbbbbbbbbbbbbbbbbbbbbbbbbbbbbb",
"bbbbbbbbbbbbbbbbbbbbbbbbbbbbbbbbbbbbbbbbbbbbbbbbbbbbbbbbbbbbbbbb",
"bbbbbbbbbbbbbbbbbbbbbbbbbbbbbbbbbbbbbbbbbbbbbbbbbbbbbbbbbbbbbbbb",
"bbbbbbbbbbbbbbbbbbbbbbbbbbbbbbbbbbbbbbbbbbbbbbbbbbbbbbbbbbbbbbb.",
"bbbb............................................................",
"bbbb........................j.iliiiijljj........................",
"bbbb....................dilaeaealellliliiii.....................",
"bbbb..................diiieaalaeiediilllllll....................",
"bbbb................jiiileealalleliliidiilill...................",
"bbbb...............jiiillaeaialllililjdilleilli.................",
"bbbb..............jiiiiieaeileeedlieiijiidleelae................",
"bbbb..............iilijileeiliaeileeilileeelelle................",
"bbbb.............iiilljilelediiillaiileaaaaaeelle...............",
"bbbb.............illledieiallclilaaiiaa###aaeellii..............",
"bbbb.............ieeeedilleiejlilaeeleea###aeaelil..............",
"bbbb............iaeaaaidieeeaiiiaeegiggeaeaaaaaedii.............",
"bbbb............eeeeaaeidleeeiiieeeiiigccccgeeeelil.............",
"bbbb............aaaaaaeidieeeiiiigggiddhhhhdgeilijl.............",
"bbbb............eaaaaeggiiggeiiiicddhhhfhhhhhggidjid............",
"bbbb............eaaaaegggggggicccchhhffhhhhhhdiijjdi............",
"bbbb.............aaaagggggggccccchhffhhhhfhhhhiijjiij...........",
"bbbb.............eaeeggggcccdhdhhhfffhffffhhhhdjjjidj...........",
"bbbb.............aaaeggggccdhhhhhfffffffffffhhhcjjiid...........",
"bbbb.............aeaeggggccdhhhhffffffffkfffhhhjdjjdj...........",
"bbbb.............leeeggggcchhhhhffffffffkfffhhddiijj............",
"bbbb.............eaaegggccchhhhhffffffffffffhhddiijj............",
"bbbb.............ieaegggccdhhhhfhffhhfffffffhhdcidj.............",
"bbbb..............aaegggccdhhhfffffhhfffffffhhhiidj.............",
"bbbb..............eaggggcccddhhfffffffffffffhhhcei..............",
"bbbb..............eaggggeeeeicdhhffhhdciccddhhhdei..............",
"bbbb.............eaaggea##aaaaecdhhdiggggdddihhdidd.............",
"bbbb............geaaggeeeeegeeeeghfdcgggcddhddhdehh.............",
"bbbb............ggeeggeeaeaaeie#ghfhcggaaidchhhhcfh.............",
"bbbb............geeeggeeaeegddgaghfhhccggigchfhhdhh.............",
"bbbb.............eaagggeggicccgechfffcccdhhhffhhdhh.............",
"bbbb.............aaegggggggcccggchffffhdhhffffhhhhf.............",
"bbbb.............eaegggcdddhcccgchfffffhhffffffhfhh.............",
"bbbb.............eeagggcdhhdcgegcffffhffffkfffhhhhh.............",
"bbbb.............ggegggcchhcgeegcffffhchfkkkffhhfff.............",
"bbbb.............geeggggcccgaaggcfffhfhgcfffffhhffh.............",
"bbbb.............geegeegccceaaegchfhhffhgchffhhhffi.............",
"bbbb..............eegeeeggeaaaaacchdhhffhgchhhhhfdl.............",
"bbbb..............cegeeeggeaaaaaegidffhdddghhhhdiii.............",
"bbbb...............egeeecgeaaeegcddhhdcccdchhfhliid.............",
"bbbb................eeeeccga#aegcchhhfcecdhhffheii..............",
"bbbb.................ggecdcgeagdffkfkhchhhhffhd.i...............",
"bbbb..................eegccgeggcdhhhhdhfhhhhhhj.................",
"bbbb..................eeegcceegccdhfhhfhhhhhhd..................",
"bbbb...................eeegcgeeggccdhffhfhhhd...................",
"bbbb...................eaaegcggiicdhhhhffhdhd...................",
"bbbb....................eaaecccdddhhfhffhdhdda..................",
"bbbb....................eeaegccddhhhffffhdddjea.................",
"bbbb....................geeeggccdhhffffhddcdkaaa................",
"bbbb....................geeeeegcddhhfhdcccdflaaae...............",
"bbbb....................geeeaaeggccccciicdfkaaaaal..............",
"bbbb....................ggeeaaaaaaeeeggcdfkjaaaaaal.............",
"bbbb....................ggeaaaaaaaeegcddfkkaaaaaaaae............",
"bbbb...................leggaaaaaeeegcdhkkkeaaaaaaaaaae..........",
"bbbb.................aaaeggeeeeeegccdfkkkiaaaaaaaaa##aa.........",
"bbbb...............aaa##iegeeeggccccfkkkkaaaaaaaaa###a#a........",
"bbbb...........eaaaaa##adeeeeggcccdkkkkkaaaaaaaaaa#####aaa......",
"bbbb........eaaaa#######ideeegcccfkkkkklaaaaaaaaa#######aaaa....",
"bbbb......aaaaa#########ldjeeecdkkkkkkjaaaaaaaaaa########aaaaa..",
"bbb....aaaaaa########a##ajjjeefkkkjkkkaaaaaaaaaaa########aaaaaaa"
};
