/* XPM */
static char *rit16b[] = {
/* width height num_colors chars_per_pixel */
"    64    64       14            1",
/* colors */
". c #b3353f",
"# c #1c2e23",
"a c #303733",
"b c #4f171c",
"c c #886653",
"d c #997a68",
"e c #494236",
"f c #c1a08e",
"g c #654b3b",
"h c #b68a73",
"i c #6c5e57",
"j c #978e87",
"k c #c3bdb6",
"l c #525454",
/* pixels */
"bbbbbbbbbbbbbbbbbbbbbbbbbbbbbbbbbbbbbbbbbbbbbbbbbbbbbbbbbbbbbbbb",
"bbbbbbbbbbbbbbbbbbbbbbbbbbbbbbbbbbbbbbbbbbbbbbbbbbbbbbbbbbbbbbbb",
"bbbbbbbbbbbbbbbbbbbbbbbbbbbbbbbbbbbbbbbbbbbbbbbbbbbbbbbbbbbbbbbb",
"bbbbbbbbbbbbbbbbbbbbbbbbbbbbbbbbbbbbbbbbbbbbbbbbbbbbbbbbbbbbbbb.",
"bbbb............................................................",
"bbbb..................................aaa.......................",
"bbbb.......................ea.......aaaaaaaaa#..................",
"bbbb......................eaa####aaaa###a#####aa................",
"bbbb.....................aeaaa#a#e#aa#############..............",
"bbbb....................aaa########################.............",
"bbbb....................a###########################............",
"bbbb..................aa#############################...........",
"bbbb.................a################################..........",
"bbbb................aa################################a.........",
"bbbb................ee################################aa........",
"bbbb..............ea####################################........",
"bbbb............leea####################################........",
"bbbb...........eea#a#####################################.......",
"bbbb..........aeaa#######################################.......",
"bbbb..........a#a#######################a#a##############.......",
"bbbb.........a###################a#aegeeggga#############.......",
"bbbb.........a################aaeegccggcccce############........",
"bbbb.........a################egcccdcccddcdga###########........",
"bbbb..........###############egcdccicdhhhhdce###########........",
"bbbb..........##############agcdddhhhhhffhdcg###########........",
"bbbb.........###############ecddhhhhfffffhhcce##########........",
"bbbb.........##############agccdhfhhfhhfhffdcgaa########........",
"bbbb........a###########eea##aaecdhhhhhffjdcieea########........",
"bbbb........#########a##ggegeeaaagfhhhhfda#####aa########.......",
"bbbb........a###########ggccdfhdccdhhhhhgggiccgee#########......",
"bbbb.......aa##########aggccdiaecdddhfhddccddddcg#########......",
"bbbb........###########aggcceeeegidcdhdccgaaaidcg##########.....",
"bbbb........##########aaggccccdddcdcdhddcccgggcdg##########.....",
"bbbb........a##########agcdhhhhhhhdcdhddcccdddccg##########.....",
"bbbb........a###########gcdhhhhhhhccdhhcdhhhhhhdc#########a.....",
"bbbb.........###########gcdhhhffhdccdhhddhhfffhdc#########a.....",
"bbbb........###########agcchhhfhhdcchhhcchhfffhdi#########......",
"bbbb.......############egccdhhhhdcdchfhddchffhhce#########......",
"bbbb.......a###########agccdhhhhdccchhdcddchhhdca#########......",
"bbbb........a#########eegccchdhhdccccdccdhdhhhdcg########a......",
"bbbb.........########eegggcchddddddddhhdddhchdcic#######a.......",
"bbbb.........########aagggcchhcchcdhhhhhddddcccgga######........",
"bbbb........a#########egigccfhgecce..cce.ccdhdccga#####.........",
"bbbb........a##########eagcchhhcecdfdfddgechhccega#####.........",
"bbbb........a###########agichhhhcc..ece.chhhhcggc######.........",
"bbbb........############ecgcdhhhdchdhhhcdhhhdcega#####..........",
"bbbb........############gcccchdhddhhhhhdhhhcca########..........",
"bbbb........a###########ecccccddhhhhhhhhhddcg#########..........",
"bbbb........a###########igccicchhhffffhhhdcg##########..........",
"bbbb........a###########iddgcicchhffhfhhhcg###########..........",
"bbbb.........###########ecjdgccidhhhhhhdcge###########..........",
"bbbb.........aa########a#ddjjjcccccdddciggi###########..........",
"bbbb.........llaa########cdjfcjjgccccgccgd#######aeaa...........",
"bbbb.....iillaaa#aaa#a##aajffhddjddddcccdd#####.aaa.............",
"bbbb.iillllaaaaa##aaaaaa#ajfkffffdffjjjjjj#####.................",
"bbbblllaaaaaaaaaa#aaa#aaaajjfkdjffkffjjjjj#####.................",
"bbbbaaaaaaaaaa#a##a#aa#aaaijjffkfkfkkfjjjj#####.................",
"bbbbaaaaaa#aaaaaa##aaaaaaajjjffkffkfkffffj######................",
"bbbbaa#a##aa#a#####a#a#aaaldjffhkfkfkffjja########a.............",
"bbbbaa#a##a####a#a###aa#aaacffkkkffhkkjfj##########a#...........",
"bbbba#aaa#aa#aaa#a#aaa#aaaajdffkffkkkkkfj##############a........",
"bbbbaaaaaaa#aaaaaa##aaaaaaacfddfkkkfkkkjce###############a......",
"bbbbaaaaaaaaaaaaa###aaaaaaaekkkfjjfkfjdjcj#################a....",
"bbb.aaaaaaaaaa#aaa#aaaaaaaaadfkkhjkkkkjjkfaa######aa########...."
};
