/* XPM */
static char *rit16a[] = {
/* width height num_colors chars_per_pixel */
"    64    64       15            1",
/* colors */
". c #b3353f",
"# c #1c2e23",
"a c #303733",
"b c #eecbcd",
"c c #4f171c",
"d c #886653",
"e c #997a68",
"f c #494236",
"g c #c1a08e",
"h c #654b3b",
"i c #b68a73",
"j c #6c5e57",
"k c #978e87",
"l c #c3bdb6",
"m c #525454",
/* pixels */
"bbbbbbbbbbbbbbbbbbbbbbbbbbbbbbbbbbbbbbbbbbbbbbbbbbbbbbbbbbbbbbb.",
"bbbbbbbbbbbbbbbbbbbbbbbbbbbbbbbbbbbbbbbbbbbbbbbbbbbbbbbbbbbbbb.c",
"bb............................................................cc",
"bb..................................aaa.......................cc",
"bb.......................fa.......aaaaaaaaa#..................cc",
"bb......................faa####aaaa###a#####aa................cc",
"bb.....................afaaa#a#f#aa#############..............cc",
"bb....................aaa########################.............cc",
"bb....................a###########################............cc",
"bb..................aa#############################...........cc",
"bb.................a################################..........cc",
"bb................aa################################a.........cc",
"bb................ff################################aa........cc",
"bb..............fa####################################........cc",
"bb............mffa####################################........cc",
"bb...........ffa#a#####################################.......cc",
"bb..........afaa#######################################.......cc",
"bb..........a#a#######################a#a##############.......cc",
"bb.........a###################a#afhffhhha#############.......cc",
"bb.........a################aaffhddhhddddf############........cc",
"bb.........a################fhdddedddeedeha###########........cc",
"bb..........###############fhdeddjdeiiiiedf###########........cc",
"bb..........##############ahdeeeiiiiiggiedh###########........cc",
"bb.........###############fdeeiiiigggggiiddf##########........cc",
"bb.........##############ahddeigiigiigiggedhaa########........cc",
"bb........a###########ffa##aafdeiiiiiggkedjffa########........cc",
"bb........#########a##hhfhffaaahgiiiigea#####aa########.......cc",
"bb........a###########hhddegieddeiiiiihhhjddhff#########......cc",
"bb.......aa##########ahhddejafdeeeigieeddeeeedh#########......cc",
"bb........###########ahhddffffhjedeieddhaaajedh##########.....cc",
"bb........##########aahhddddeeededeieedddhhhdeh##########.....cc",
"bb........a##########ahdeiiiiiiiedeieedddeeeddh##########.....cc",
"bb........a###########hdeiiiiiiiddeiideiiiiiied#########a.....cc",
"bb.........###########hdeiiiggieddeiieeiigggied#########a.....cc",
"bb........###########ahddiiigiieddiiiddiigggiej#########......cc",
"bb.......############fhddeiiiiededigieediggiidf#########......cc",
"bb.......a###########ahddeiiiiedddiiedeediiieda#########......cc",
"bb........a#########ffhdddieiieddddeddeieiiiedh########a......cc",
"bb.........########ffhhhddieeeeeeeeiieeeidiedjd#######a.......cc",
"bb.........########aahhhddiiddideiiiiieeeedddhha######........cc",
"bb........a#########fhjhddgihfddf..ddf.ddeieddha#####.........cc",
"bb........a##########fahddiiidfdegegeehfdiiddfha#####.........cc",
"bb........a###########ahjdiiiidd..fdf.diiiidhhd######.........cc",
"bb........############fdhdeiiiedieiiideiiiedfha#####..........cc",
"bb........############hddddieieeiiiiieiiidda########..........cc",
"bb........a###########fdddddeeiiiiiiiiieedh#########..........cc",
"bb........a###########jhddjddiiiggggiiiedh##########..........cc",
"bb........a###########jeehdjddiiggigiiidh###########..........cc",
"bb.........###########fdkehddjeiiiiiiedhf###########..........cc",
"bb.........aa########a#eekkkdddddeeedjhhj###########..........cc",
"bb.........mmaa########dekgdkkhddddhddhe#######afaa...........cc",
"bb.....jjmmaaa#aaa#a##aakggieekeeeedddee#####.aaa.............cc",
"bb.jjmmmmaaaaa##aaaaaa#akglggggeggkkkkkk#####.................cc",
"bbmmmaaaaaaaaaa#aaa#aaaakkglekgglggkkkkk#####.................cc",
"bbaaaaaaaaaa#a##a#aa#aaajkkgglglgllgkkkk#####.................cc",
"bbaaaaaa#aaaaaa##aaaaaaakkkgglgglglggggk######................cc",
"bbaa#a##aa#a#####a#a#aaamekggilglglggkka########a.............cc",
"bbaa#a##a####a#a###aa#aaadgglllggillkgk##########a#...........cc",
"bba#aaa#aa#aaa#a#aaa#aaaakegglgglllllgk##############a........cc",
"bbaaaaaaa#aaaaaa##aaaaaaadgeeglllglllkdf###############a......cc",
"bbaaaaaaaaaaaaa###aaaaaaaflllgkkglgkekdk#################a....cc",
"bbaaaaaaaaaa#aaa#aaaaaaaaaegllikllllkklgaa######aa########....cc",
"b.cccccccccccccccccccccccccccccccccccccccccccccccccccccccccccccc",
".ccccccccccccccccccccccccccccccccccccccccccccccccccccccccccccccc"
};
