/* XPM */
static char *urs16b[] = {
/* width height num_colors chars_per_pixel */
"    64    64       15            1",
/* colors */
". c #b3353f",
"# c #1c2e23",
"a c #303733",
"b c #eecbcd",
"c c #4f171c",
"d c #886653",
"e c #997a68",
"f c #494236",
"g c #c1a08e",
"h c #654b3b",
"i c #b68a73",
"j c #6c5e57",
"k c #978e87",
"l c #c3bdb6",
"m c #525454",
/* pixels */
"cccccccccccccccccccccccccccccccccccccccccccccccccccccccccccccccc",
"cccccccccccccccccccccccccccccccccccccccccccccccccccccccccccccccc",
"cccccccccccccccccccccccccccccccccccccccccccccccccccccccccccccccc",
"ccccccccccccccccccccccccccccccccccccccccccccccccccccccccccccccc.",
"cccc............................................................",
"cccc............................................................",
"cccc............................................................",
"cccc............................lkkkjjkk........................",
"cccc........................kkkkkjemjmjjjkk.....................",
"cccc....................lkkjjjjmmjjkajjmjkkk....................",
"cccc..................llkjkjkejmjjkkjamjkkkkkj..................",
"cccc................llllkkkkejjmkjjkkjmfjjkkejjjj...............",
"cccc...............lkkkllkkkjjekjjkjkkfhjekkkkekjkk.............",
"cccc..............kkkkllkkkkkjjekkkkkejedkkkeekkekjk............",
"cccc.............kkejjekkkkkkkjjkkklkkjdhjfffjejeejdk...........",
"cccc............kkkjjjjmeekkkejekjkkjamfafaaffjjjjeekk..........",
"cccc............kjkjmmmaffjkejjjjkjmaaaf#fa#jjjjeejjke..........",
"cccc...........jjkejmjaaaffffjjjjjfa####afaahjjjjekjjdk.........",
"cccc...........kkkjjmmaaffjhhffa#aaaa##aaafffaafjkkjjekk........",
"cccc..........jkkkjjmaaafjjjjjfaaaaaaffaaafaaafffkjjjekk........",
"cccc..........kkkkkmaaafhjedjjjhhhfffhfffffffhjjjkjjjkjkk.......",
"cccc..........kklkjfaaafhdedddddddjhjjjhhhhhddeejjjjekkk........",
"cccc..........klllmaa#afjdeddddekkeddeeeddjjddejffjjkkk.........",
"cccc..........lkkjaa##afjedddeeekkkkkkkkkkkeeekkffjjejj.........",
"cccc..........kjfa#a##afddddeeekkkkkggkggggllllgjffjjjmk........",
"cccc..........kjma####afdejhhhhdekkkkkglkgkkglkkkjafmff.........",
"cccc...........jfaa###ahdhdjjffhjkeekkkehhjdllggljafffa.........",
"cccc...........mfa#a##ajhdhfa##aalkdekhjhaaahdlblkaaaaa.........",
"cccc............aaa###hjhmfaaa##afldeedejf#ajjglbj#aaa..........",
"cccc............maa#a#jmjma####m#ajhhddjhha#a#jglk##am..........",
"cccc.............aa###ffhha#a##ma#ahhihhff#am#aklka#am..........",
"cccc..............a###mfhhfaa##m##afegdkdhaaefeglda#m...........",
"cccc..............maafffhhhffahhfahhegegkkdekkgglehfe...........",
"cccc..............ha#hdhhddjjddjfhfjeggelkglgkkggjhdl...........",
"cccc..............hjfjdhhdeeeeeddhhjegggllglggkedhek............",
"cccc...............dhjddhdekgkkehfhjkgglelllllgediel............",
"cccc...............hajeeeejjddhhjfjjdklleedkgkedggel............",
"cccc...............haddddddddeeehhhahhegkeggggkggge.............",
"cccc...............dfhdddddeeeejaaafhjhhdhkekgggggg.............",
"cccc................edddddddedejaafhdeggkfdeggllggg.............",
"cccc................djdddddddddjfhhekkgglhhekgglgg..............",
"cccc.................dddddjjjddjhjjdkkgllehjekglgg..............",
"cccc.................jddddjjjjjfhfffhh..eefhdkggk...............",
"cccc..................idddjjjdfa#fafhjhfffafekgge...............",
"cccc...................ddjjjjeaffhhh.gkkgkjhkkkke...............",
"cccc....................djjjjefhjjdjdeeeegedkkke................",
"cccc....................jdjjjkfjjjdkkkgkggkekkkk................",
"cccc...................##jjhjdhjjjdkkggggggekkk.................",
"cccc..................##adjhhjhdddkkgglllggkkk..................",
"cccc..................##fdjjhhhjddekkkgllgkeek..................",
"cccc.................###kjdjhhjjjjddkkggggejkk..................",
"cccc................a##jkddjjhhjjjjddkkkgkjekgj.................",
"cccc...............a###jkjjjjjjjjjhhhjjjedekggjjj...............",
"cccc..............aa###kkhjjjjjjjjjhfhjeekkkggjjjjm.............",
"cccc............aa#####kkkjjjjjjjjjjjjdekegllgjjjjjmm...........",
"cccc..........m######a#kkkahjjjjjhjjjdeeekgglljjjjjmmmj.........",
"cccc.......mma#########jkkjahjjjjhjeeeeeekkgglmjjjjjjfmmmjm.....",
"cccc......fma##########mkkkmfhjjjmjjeeeekkggllmjjjjjmmmmjjjjmm..",
"cccc...mmfaa###########akkkkjahjjjjjeeekkkglllmjmjjmmjammjmjjjjj",
"ccccjmmmfaa#############kkkkkkfhhjjjjeegkkllllmmjjjmmmmammmjjjjj",
"ccccmmfaaa###a#####a####jkkkkkkhjjjjjeeeelllllmjjmjmmmmaammmjjjj",
"ccccffaaaaa#############mkkkkklljjjjjjeklllllkmmmmmmmmmfammmmmjj",
"ccccaaaaaa#############amkkkkklllejjjmjllllllfmmmmmmmmmm#amjmjjj",
"ccc.aaaaaaaaa#aaa#aaaaaamkkkkllllldjjflllllllfmmmmmmmmmmaammmmmj"
};
