/* XPM */
static char *urs16a[] = {
/* width height num_colors chars_per_pixel */
"    64    64       15            1",
/* colors */
". c #b3353f",
"# c #1c2e23",
"a c #303733",
"b c #eecbcd",
"c c #4f171c",
"d c #886653",
"e c #997a68",
"f c #494236",
"g c #c1a08e",
"h c #654b3b",
"i c #b68a73",
"j c #6c5e57",
"k c #978e87",
"l c #c3bdb6",
"m c #525454",
/* pixels */
"bbbbbbbbbbbbbbbbbbbbbbbbbbbbbbbbbbbbbbbbbbbbbbbbbbbbbbbbbbbbbbb.",
"bbbbbbbbbbbbbbbbbbbbbbbbbbbbbbbbbbbbbbbbbbbbbbbbbbbbbbbbbbbbbb.c",
"bb............................................................cc",
"bb............................................................cc",
"bb............................................................cc",
"bb............................lkkkjjkk........................cc",
"bb........................kkkkkjemjmjjjkk.....................cc",
"bb....................lkkjjjjmmjjkajjmjkkk....................cc",
"bb..................llkjkjkejmjjkkjamjkkkkkj..................cc",
"bb................llllkkkkejjmkjjkkjmfjjkkejjjj...............cc",
"bb...............lkkkllkkkjjekjjkjkkfhjekkkkekjkk.............cc",
"bb..............kkkkllkkkkkjjekkkkkejedkkkeekkekjk............cc",
"bb.............kkejjekkkkkkkjjkkklkkjdhjfffjejeejdk...........cc",
"bb............kkkjjjjmeekkkejekjkkjamfafaaffjjjjeekk..........cc",
"bb............kjkjmmmaffjkejjjjkjmaaaf#fa#jjjjeejjke..........cc",
"bb...........jjkejmjaaaffffjjjjjfa####afaahjjjjekjjdk.........cc",
"bb...........kkkjjmmaaffjhhffa#aaaa##aaafffaafjkkjjekk........cc",
"bb..........jkkkjjmaaafjjjjjfaaaaaaffaaafaaafffkjjjekk........cc",
"bb..........kkkkkmaaafhjedjjjhhhfffhfffffffhjjjkjjjkjkk.......cc",
"bb..........kklkjfaaafhdedddddddjhjjjhhhhhddeejjjjekkk........cc",
"bb..........klllmaa#afjdeddddekkeddeeeddjjddejffjjkkk.........cc",
"bb..........lkkjaa##afjedddeeekkkkkkkkkkkeeekkffjjejj.........cc",
"bb..........kjfa#a##afddddeeekkkkkggkggggllllgjffjjjmk........cc",
"bb..........kjma####afdejhhhhdekkkkkglkgkkglkkkjafmff.........cc",
"bb...........jfaa###ahdhdjjffhjkeekkkehhjdllggljafffa.........cc",
"bb...........mfa#a##ajhdhfa##aalkdekhjhaaahdlblkaaaaa.........cc",
"bb............aaa###hjhmfaaa##afldeedejf#ajjglbj#aaa..........cc",
"bb............maa#a#jmjma####m#ajhhddjhha#a#jglk##am..........cc",
"bb.............aa###ffhha#a##ma#ahhihhff#am#aklka#am..........cc",
"bb..............a###mfhhfaa##m##afegdkdhaaefeglda#m...........cc",
"bb..............maafffhhhffahhfahhegegkkdekkgglehfe...........cc",
"bb..............ha#hdhhddjjddjfhfjeggelkglgkkggjhdl...........cc",
"bb..............hjfjdhhdeeeeeddhhjegggllglggkedhek............cc",
"bb...............dhjddhdekgkkehfhjkgglelllllgediel............cc",
"bb...............hajeeeejjddhhjfjjdklleedkgkedggel............cc",
"bb...............haddddddddeeehhhahhegkeggggkggge.............cc",
"bb...............dfhdddddeeeejaaafhjhhdhkekgggggg.............cc",
"bb................edddddddedejaafhdeggkfdeggllggg.............cc",
"bb................djdddddddddjfhhekkgglhhekgglgg..............cc",
"bb.................dddddjjjddjhjjdkkgllehjekglgg..............cc",
"bb.................jddddjjjjjfhfffhh..eefhdkggk...............cc",
"bb..................idddjjjdfa#fafhjhfffafekgge...............cc",
"bb...................ddjjjjeaffhhh.gkkgkjhkkkke...............cc",
"bb....................djjjjefhjjdjdeeeegedkkke................cc",
"bb....................jdjjjkfjjjdkkkgkggkekkkk................cc",
"bb...................##jjhjdhjjjdkkggggggekkk.................cc",
"bb..................##adjhhjhdddkkgglllggkkk..................cc",
"bb..................##fdjjhhhjddekkkgllgkeek..................cc",
"bb.................###kjdjhhjjjjddkkggggejkk..................cc",
"bb................a##jkddjjhhjjjjddkkkgkjekgj.................cc",
"bb...............a###jkjjjjjjjjjhhhjjjedekggjjj...............cc",
"bb..............aa###kkhjjjjjjjjjhfhjeekkkggjjjjm.............cc",
"bb............aa#####kkkjjjjjjjjjjjjdekegllgjjjjjmm...........cc",
"bb..........m######a#kkkahjjjjjhjjjdeeekgglljjjjjmmmj.........cc",
"bb.......mma#########jkkjahjjjjhjeeeeeekkgglmjjjjjjfmmmjm.....cc",
"bb......fma##########mkkkmfhjjjmjjeeeekkggllmjjjjjmmmmjjjjmm..cc",
"bb...mmfaa###########akkkkjahjjjjjeeekkkglllmjmjjmmjammjmjjjjjcc",
"bbjmmmfaa#############kkkkkkfhhjjjjeegkkllllmmjjjmmmmammmjjjjjcc",
"bbmmfaaa###a#####a####jkkkkkkhjjjjjeeeelllllmjjmjmmmmaammmjjjjcc",
"bbffaaaaa#############mkkkkklljjjjjjeklllllkmmmmmmmmmfammmmmjjcc",
"bbaaaaaa#############amkkkkklllejjjmjllllllfmmmmmmmmmm#amjmjjjcc",
"bbaaaaaaaaa#aaa#aaaaaamkkkkllllldjjflllllllfmmmmmmmmmmaammmmmjcc",
"b.cccccccccccccccccccccccccccccccccccccccccccccccccccccccccccccc",
".ccccccccccccccccccccccccccccccccccccccccccccccccccccccccccccccc"
};
