/* XPM */
static char *wen16b[] = {
/* width height num_colors chars_per_pixel */
"    64    64       15            1",
/* colors */
". c #b3353f",
"# c #1c2e23",
"a c #303733",
"b c #4f171c",
"c c #886653",
"d c #997a68",
"e c #494236",
"f c #c1a08e",
"g c #654b3b",
"h c #b68a73",
"i c #6c5e57",
"j c #978e87",
"k c #c3bdb6",
"l c #525454",
"m c #306387",
/* pixels */
"bbbbbbbbbbbbbbbbbbbbbbbbbbbbbbbbbbbbbbbbbbbbbbbbbbbbbbbbbbbbbbbb",
"bbbbbbbbbbbbbbbbbbbbbbbbbbbbbbbbbbbbbbbbbbbbbbbbbbbbbbbbbbbbbbbb",
"bbbbbbbbbbbbbbbbbbbbbbbbbbbbbbbbbbbbbbbbbbbbbbbbbbbbbbbbbbbbbbbb",
"bbbbbbbbbbbbbbbbbbbbbbbbbbbbbbbbbbbbbbbbbbbbbbbbbbbbbbbbbbbbbbb.",
"bbbb............................................................",
"bbbb............................................................",
"bbbb.........................la.................................",
"bbbb.....................a#########i............................",
"bbbb....................#################.......................",
"bbbb...................####################aaaa....aa...........",
"bbbb..................#########################a..###a..........",
"bbbb..................#########################aa#####..........",
"bbbb..................#################################.........",
"bbbb..................####################a############a........",
"bbbb..................##################################a.......",
"bbbb..................###################################.......",
"bbbb.................#################################a###......",
"bbbb................##################################a###a.....",
"bbbb...............a###########a######################aa###.....",
"bbbb...............#####aeeeaaaeaaa#######################aa....",
"bbbb..............a#####eggceaeeggeaa#####################aaa...",
"bbbb..............#####agccccgcggggiga####################a#a...",
"bbbb.............######aicddddcccdddcgea#################aa#a...",
"bbbb............l#####agcddddddddddddccea##################a....",
"bbbb............#######gcdhffffhhdhjjddieaa################a....",
"bbbb...........#######acdddjjfffffffhddia#aaa##############.....",
"bbbb..........a#######ecccdiilicjffhdiaaaeeaa##############a....",
"bbbb.....aa..#########gccdhjdcccdhhdciggiccie#############a#a...",
"bbbb....a#############cccciiiggcddjdcgelilgge##############aa...",
"bbbb...a##############ccga####ggchfdgeia####ee#############aa...",
"bbbb...###############ccgagaaigcdhfhcicj#aa#age############a....",
"bbbb...a##############ccdccdcccdffffddcciciggge###########a.....",
"bbbb...e##############chhhdcdhffffffhffdcgcccig#########l.......",
"bbbb....##############dhfffffkffhffhhffffhhhdig#######aae.......",
"bbbb....#a############dhffffffhhfffhddffffffdie#######a.........",
"bbbb......############chhfffhhhfffffddcfhffhdie#####aa..........",
"bbbb......aa##a######acdhhffhcdhddhcccgdhfhhdigea###a...........",
"bbbb........aaaa######icdhhdccdgaggeagichhhdcge#####............",
"bbbb...........#######egcccgeddddjccccigcdccge##a##.............",
"bbbb...........########gggegcdhhfhhcddcieegeee#aaa..............",
"bbbb...........ea#####agcccggghccccccggggggeee##e...............",
"bbbb.............l#####egddcdadcgggdgge#gccgea#a................",
"bbbb..............####ilgcddhchffkkkkdgcdcigeai.................",
"bbbb..............e#..aleicdhdcfffhhhchcccgee...................",
"bbbb.....................giddddcdhhdciiccieaa...................",
"bbbb......................gcdjddciiiiiciieae#m..................",
"bbbb....................mlggddhhdddddddieaee#mm.................",
"bbbb..................lmmmgeidfhffffhdcgeegeammm................",
"bbbb.................mmmmmigedhhffffhciaegge#mmmm...............",
"bbbb................mmmmm#gigecdhfhdcgaegggammmmm...............",
"bbbb..............mmmmmm##giggeicddieaeegge#mmmmlm..............",
"bbbb............mmmmmmmm##gccggeaaaaaeeggg##mmmmmm..............",
"bbbb.......###mmmmmmmmmm##gcccgggeeeeeegge##mmmmlmm#............",
"bbbb....###mmmmmmmmmmmm##egicccicgggggggea#mmmmmmmm#a...........",
"bbbb.########mmmmmmmmmm##ggccccccccggggge#mmmmmmmmmm###.........",
"bbbb##############mmmmm##igccccccccigggga#mmmmmmmmmm######a.....",
"bbbb#################m##aiccccccccccccggammmmmmmmmmm#########...",
"bbbb##################mmaccccccccgcccccgammmmmmmmmmmm###########",
"bbbb##################amacccccccccccccigmmmmmmmmmmmmm###########",
"bbbb###################madddcddcccccdccimmmmmmmmmmmmm###########",
"bbbb###################mmddddddddddddddmm#######################",
"bbbb##################mlmddddhdhcfcdddlmm#######################",
"bbbb###################mmddhhddhhdchdmmlm#######################",
"bbb.##################mmljhhhhhcccddllmmmm######################"
};
