/* XPM */
static char *wen16a[] = {
/* width height num_colors chars_per_pixel */
"    64    64       16            1",
/* colors */
". c #b3353f",
"# c #1c2e23",
"a c #303733",
"b c #eecbcd",
"c c #4f171c",
"d c #886653",
"e c #997a68",
"f c #494236",
"g c #c1a08e",
"h c #654b3b",
"i c #b68a73",
"j c #6c5e57",
"k c #978e87",
"l c #c3bdb6",
"m c #525454",
"n c #306387",
/* pixels */
"bbbbbbbbbbbbbbbbbbbbbbbbbbbbbbbbbbbbbbbbbbbbbbbbbbbbbbbbbbbbbbb.",
"bbbbbbbbbbbbbbbbbbbbbbbbbbbbbbbbbbbbbbbbbbbbbbbbbbbbbbbbbbbbbb.c",
"bb............................................................cc",
"bb............................................................cc",
"bb.........................ma.................................cc",
"bb.....................a#########j............................cc",
"bb....................#################.......................cc",
"bb...................####################aaaa....aa...........cc",
"bb..................#########################a..###a..........cc",
"bb..................#########################aa#####..........cc",
"bb..................#################################.........cc",
"bb..................####################a############a........cc",
"bb..................##################################a.......cc",
"bb..................###################################.......cc",
"bb.................#################################a###......cc",
"bb................##################################a###a.....cc",
"bb...............a###########a######################aa###.....cc",
"bb...............#####afffaaafaaa#######################aa....cc",
"bb..............a#####fhhdfaffhhfaa#####################aaa...cc",
"bb..............#####ahddddhdhhhhjha####################a#a...cc",
"bb.............######ajdeeeedddeeedhfa#################aa#a...cc",
"bb............m#####ahdeeeeeeeeeeeeddfa##################a....cc",
"bb............#######hdeiggggiieikkeejfaa################a....cc",
"bb...........#######adeeekkgggggggieeja#aaa##############.....cc",
"bb..........a#######fdddejjmjdkggiejaaaffaa##############a....cc",
"bb.....aa..#########hddeikedddeiiedjhhjddjf#############a#a...cc",
"bb....a#############ddddjjjhhdeekedhfmjmhhf##############aa...cc",
"bb...a##############ddha####hhdigehfja####ff#############aa...cc",
"bb...###############ddhahaajhdeigidjdk#aa#ahf############a....cc",
"bb...a##############ddeddedddeggggeeddjdjhhhf###########a.....cc",
"bb...f##############diiiedeiggggggiggedhdddjh#########m.......cc",
"bb....##############eiggggglggiggiiggggiiiejh#######aaf.......cc",
"bb....#a############eiggggggiigggieeggggggejf#######a.........cc",
"bb......############diigggiiigggggeedgiggiejf#####aa..........cc",
"bb......aa##a######adeiiggideieeidddheigiiejhfa###a...........cc",
"bb........aaaa######jdeiieddehahhfahjdiiiedhf#####............cc",
"bb...........#######fhdddhfeeeekddddjhdeddhf##a##.............cc",
"bb...........########hhhfhdeiigiideedjffhfff#aaa..............cc",
"bb...........fa#####ahdddhhhiddddddhhhhhhfff##f...............cc",
"bb.............m#####fheedeaedhhhehhf#hddhfa#a................cc",
"bb..............####jmhdeeidiggllllehdedjhfaj.................cc",
"bb..............f#..amfjdeiedgggiiididddhff...................cc",
"bb.....................hjeeeedeiiedjjddjfaa...................cc",
"bb......................hdekeedjjjjjdjjfaf#n..................cc",
"bb....................nmhheeiieeeeeeejfaff#nn.................cc",
"bb..................mnnnhfjegiggggiedhffhfannn................cc",
"bb.................nnnnnjhfeiiggggidjafhhf#nnnn...............cc",
"bb................nnnnn#hjhfdeigiedhafhhhannnnn...............cc",
"bb..............nnnnnn##hjhhfjdeejfaffhhf#nnnnmn..............cc",
"bb............nnnnnnnn##hddhhfaaaaaffhhh##nnnnnn..............cc",
"bb.......###nnnnnnnnnn##hdddhhhffffffhhf##nnnnmnn#............cc",
"bb....###nnnnnnnnnnnn##fhjdddjdhhhhhhhfa#nnnnnnnn#a...........cc",
"bb.########nnnnnnnnnn##hhddddddddhhhhhf#nnnnnnnnnn###.........cc",
"bb##############nnnnn##jhddddddddjhhhha#nnnnnnnnnn######a.....cc",
"bb#################n##ajddddddddddddhhannnnnnnnnnn#########...cc",
"bb##################nnaddddddddhdddddhannnnnnnnnnnn###########cc",
"bb##################anadddddddddddddjhnnnnnnnnnnnnn###########cc",
"bb###################naeeedeedddddeddjnnnnnnnnnnnnn###########cc",
"bb###################nneeeeeeeeeeeeeenn#######################cc",
"bb##################nmneeeeieidgdeeemnn#######################cc",
"bb###################nneeiieeiiediennmn#######################cc",
"bb##################nnmkiiiiidddeemmnnnn######################cc",
"b.cccccccccccccccccccccccccccccccccccccccccccccccccccccccccccccc",
".ccccccccccccccccccccccccccccccccccccccccccccccccccccccccccccccc"
};
