#define dtk_speak_width 100
#define dtk_speak_height 75
static char dtk_speak_bits[] = {
 0x00,0x00,0x00,0x00,0x00,0x00,0x00,0x00,0x00,0x00,0x00,0x00,0xf0,0x00,0x00,
 0x00,0x00,0x00,0x00,0x00,0x00,0x00,0x00,0x00,0x00,0xf0,0x00,0x00,0x00,0x00,
 0x00,0x00,0x00,0x00,0x00,0x00,0x00,0x00,0xf0,0x00,0x00,0x80,0x1f,0x00,0x00,
 0xe0,0x0f,0x80,0x00,0x00,0x00,0xf0,0x00,0x00,0x40,0xe0,0x03,0x00,0xe0,0x0f,
 0x86,0x03,0x00,0x00,0xf0,0x00,0x00,0x40,0x00,0x7c,0x00,0xe0,0x0e,0x81,0x00,
 0x00,0x00,0xf0,0x00,0x00,0x40,0xf8,0x80,0x0f,0xe0,0x0f,0xe0,0x00,0x00,0x00,
 0xf0,0x00,0x00,0xc0,0x19,0x1f,0xf0,0x03,0x30,0xe0,0x00,0x00,0x00,0xf0,0x00,
 0x00,0x80,0x21,0xe0,0x07,0x1c,0x0c,0x00,0x0c,0x00,0x00,0xf0,0x00,0x00,0xc0,
 0x21,0x03,0xf8,0x18,0x02,0x80,0x00,0x00,0x00,0xf0,0x00,0x00,0x00,0xc7,0x80,
 0x01,0x87,0x01,0x78,0x00,0x00,0x00,0xf0,0x00,0x00,0xc0,0xc6,0xe0,0xc7,0x64,
 0x00,0x87,0x03,0x00,0x00,0xf0,0x00,0x00,0x00,0xc7,0xf0,0x0e,0x18,0xf0,0xe0,
 0x0e,0x00,0x00,0xf0,0x00,0x00,0x40,0x1d,0xe3,0x07,0x84,0x0d,0x60,0x0d,0x00,
 0x00,0xf0,0x00,0x00,0x40,0x1d,0x83,0x31,0x98,0x01,0x80,0x03,0x00,0x00,0xf0,
 0x00,0x00,0x80,0x3a,0x03,0xf0,0x00,0x02,0x00,0x00,0x00,0x00,0xf0,0x00,0x00,
 0x40,0x35,0x6c,0x30,0xfc,0xcf,0x66,0x03,0x00,0x00,0xf0,0x00,0x00,0x40,0x35,
 0x0c,0x38,0x00,0x00,0x00,0x00,0x00,0x00,0xf0,0x00,0x00,0x80,0x2a,0x0c,0x38,
 0x60,0x02,0x00,0x00,0x00,0x00,0xf0,0x00,0x00,0x80,0xea,0x10,0x00,0x80,0x0d,
 0x00,0x00,0x00,0x00,0xf0,0x00,0x00,0xc0,0xea,0x10,0x38,0x80,0x0d,0x00,0x00,
 0x00,0x00,0xf0,0x00,0x00,0x00,0xd5,0x10,0xee,0xa0,0x0d,0x00,0x00,0x00,0x00,
 0xf0,0x00,0x00,0xc0,0xaa,0x63,0xd6,0x60,0x0c,0x00,0x00,0x00,0x00,0xf0,0x00,
 0x00,0x40,0x55,0x63,0x38,0x78,0x0c,0x00,0x00,0x00,0x00,0xf0,0x00,0x00,0x80,
 0xab,0x63,0xf0,0x07,0x0e,0x00,0x00,0x00,0x00,0xf0,0x00,0x00,0x00,0xae,0xee,
 0x0f,0xf8,0xc1,0x00,0x00,0x00,0x00,0xf0,0x00,0x00,0x00,0xbe,0x0e,0xc0,0x07,
 0x3e,0x07,0x00,0x00,0x00,0xf0,0x00,0x00,0x00,0xe0,0x0d,0x3e,0xf8,0x03,0x78,
 0x00,0x00,0x00,0xf0,0x00,0x00,0x00,0x00,0xf3,0xc1,0x07,0x00,0x80,0x03,0x00,
 0x00,0xf0,0x00,0x00,0x00,0x00,0x00,0x3e,0x00,0x00,0x00,0x03,0x00,0x00,0xf0,
 0x00,0x00,0x00,0x00,0xf0,0x01,0x00,0x00,0x80,0x00,0x00,0x00,0xf0,0x00,0x00,
 0x00,0x00,0x0f,0x00,0x00,0x00,0x60,0x00,0x00,0x00,0xf0,0x00,0x00,0x00,0x00,
 0x03,0x00,0x00,0x00,0x18,0x00,0x00,0x00,0xf0,0x00,0x00,0x00,0x80,0xda,0xb6,
 0x6d,0x6b,0x05,0x00,0x00,0x00,0xf0,0x00,0x00,0x00,0x00,0x00,0x00,0x00,0x00,
 0x00,0x00,0x00,0x00,0xf0,0x00,0x00,0x00,0x00,0x00,0x00,0x00,0x00,0x00,0x00,
 0x00,0x00,0xf0,0x00,0x00,0x00,0x00,0x00,0x00,0x00,0x00,0x00,0x00,0x00,0x00,
 0xf0,0x00,0x80,0x3f,0xe0,0x1f,0xf8,0x03,0x00,0x60,0x03,0x00,0x00,0xf0,0x00,
 0x80,0x40,0x20,0x00,0x06,0x64,0x00,0x60,0x03,0x00,0x00,0xf0,0x00,0x80,0x80,
 0x21,0x00,0x06,0x60,0x00,0x60,0x03,0x00,0x00,0xf0,0x00,0x80,0x80,0x21,0x00,
 0x06,0xe0,0xf1,0x61,0x43,0x00,0x00,0xf0,0x00,0x80,0x80,0xe1,0x0f,0x06,0x60,
 0x00,0x66,0x33,0x00,0x00,0xf0,0x00,0x80,0x80,0x21,0x00,0x06,0x60,0xf0,0x67,
 0x0f,0x00,0x00,0xf0,0x00,0x80,0x80,0x21,0x00,0x06,0x60,0x0c,0x66,0x33,0x00,
 0x00,0xf0,0x00,0x80,0x40,0x20,0x00,0x06,0x64,0x0c,0x66,0x43,0x00,0x00,0xf0,
 0x00,0x80,0x3f,0xe0,0x1f,0xf8,0x83,0xf1,0x67,0x83,0x01,0x00,0xf0,0x00,0x00,
 0x00,0x00,0x00,0x00,0x00,0x00,0x00,0x00,0x00,0x00,0xf0,0x00,0x00,0x00,0x00,
 0x00,0x00,0x00,0x00,0x00,0x00,0x00,0x00,0xf0,0x00,0x00,0x00,0x00,0x00,0x00,
 0x00,0x00,0x00,0x00,0x00,0x00,0xf0,0x00,0x00,0x00,0x00,0x00,0x00,0x00,0x00,
 0x00,0x00,0x00,0x00,0xf0,0x00,0x00,0xf0,0x01,0x00,0x00,0x00,0x00,0x06,0x00,
 0x00,0x00,0xf0,0x00,0x00,0x0c,0x06,0x00,0x00,0x00,0x00,0x06,0x00,0x00,0x00,
 0xf0,0x00,0x00,0x0c,0x00,0x00,0x00,0x00,0x00,0x06,0x00,0x00,0x00,0xf0,0x00,
 0x00,0x0c,0x00,0x1f,0x3e,0x87,0x3f,0x86,0x0f,0x00,0x00,0xf0,0x00,0x00,0xf0,
 0x01,0x60,0xc6,0x98,0xc1,0x66,0x30,0x00,0x00,0xf0,0x00,0x00,0x00,0x06,0x7f,
 0xc6,0x98,0xc1,0xe6,0x3f,0x00,0x00,0xf0,0x00,0x00,0x00,0xc6,0x60,0xc6,0x98,
 0xc1,0x66,0x00,0x00,0x00,0xf0,0x00,0x00,0x0c,0xc6,0x60,0xc6,0x98,0xc1,0x66,
 0x30,0x00,0x00,0xf0,0x00,0x00,0xf0,0x01,0x7f,0xc6,0x98,0x3f,0x86,0x0f,0x00,
 0x00,0xf0,0x00,0x00,0x00,0x00,0x00,0x00,0x80,0x01,0x00,0x00,0x00,0x00,0xf0,
 0x00,0x00,0x00,0x00,0x00,0x00,0x80,0x01,0x00,0x00,0x00,0x00,0xf0,0x00,0x00,
 0x00,0x00,0x00,0x00,0x00,0x00,0x00,0x00,0x00,0x00,0xf0,0x00,0x00,0x00,0x00,
 0x00,0x00,0x00,0x00,0x00,0x00,0x00,0x00,0xf0,0x00,0x06,0x00,0x00,0x80,0x09,
 0x00,0x00,0x00,0x03,0x00,0x00,0xf0,0x00,0x06,0x00,0x00,0x80,0x01,0x00,0x00,
 0x18,0x00,0x00,0x00,0xf0,0x00,0x19,0x00,0x00,0x80,0x01,0x00,0x00,0x18,0x00,
 0x00,0x00,0xf0,0x00,0x19,0xfc,0xe1,0x8f,0x09,0x1f,0xfc,0x78,0xc3,0xc7,0x1c,
 0xf0,0xc0,0x60,0x0c,0x26,0x90,0xc9,0x60,0x00,0x19,0x33,0xd8,0x63,0xf0,0xc0,
 0x60,0x0c,0x26,0x90,0xc9,0x00,0xfc,0x19,0x33,0xd8,0x60,0xf0,0xc0,0x7f,0x0c,
 0x26,0x90,0xc9,0x00,0x02,0x19,0x33,0xd8,0x60,0xf0,0x30,0x80,0x0c,0x26,0x90,
 0xc9,0x60,0x02,0x19,0x33,0xd8,0x60,0xf0,0x30,0x80,0xfc,0xe1,0x8f,0x09,0x1f,
 0xfc,0x61,0xc3,0xc7,0x60,0xf0,0x00,0x00,0x0c,0x20,0x00,0x00,0x00,0x00,0x00,
 0x00,0x00,0x00,0xf0,0x00,0x00,0x0c,0x20,0x00,0x00,0x00,0x00,0x00,0x00,0x00,
 0x00,0xf0,0x00,0x00,0x00,0x00,0x00,0x00,0x00,0x00,0x00,0x00,0x00,0x00,0xf0
 };
