#define dtk_windict.t.bm_width 16
#define dtk_windict.t.bm_height 16
static char dtk_windict.t.bm_bits[] = {
   0xf5, 0x7e, 0x35, 0x7e, 0x65, 0x46, 0xf5, 0x7e, 0x22, 0x42, 0xfe, 0x7e,
   0x6a, 0x42, 0xfe, 0x7e, 0x62, 0x62, 0xfe, 0x7e, 0x2a, 0xf2, 0xfe, 0x1e,
   0xe2, 0x3e, 0xfe, 0xbe, 0x1e, 0x10, 0xe0, 0x1c};
