#define dtk_windict.s.bm_width 24
#define dtk_windict.s.bm_height 24
static char dtk_windict.s.bm_bits[] = {
   0x01, 0xef, 0x81, 0xc9, 0xef, 0xbf, 0xc9, 0xe8, 0x3f, 0xc1, 0xef, 0xbf,
   0x89, 0xaa, 0xa0, 0xc9, 0xef, 0xbf, 0xff, 0xef, 0xbf, 0x82, 0x28, 0xa0,
   0xfa, 0xef, 0xbf, 0xfa, 0xef, 0xbf, 0x92, 0x2a, 0xa0, 0xfa, 0xef, 0xbf,
   0xfa, 0xef, 0xbf, 0xa2, 0x2a, 0xa8, 0xfa, 0xef, 0xbf, 0xfa, 0xef, 0xbf,
   0x92, 0x28, 0xfc, 0xfa, 0xef, 0x07, 0xfa, 0xef, 0x3f, 0x82, 0xef, 0x9f,
   0xfa, 0xef, 0xdf, 0x82, 0xc7, 0xe7, 0x7e, 0x00, 0x04, 0x80, 0xc7, 0x07};
